<?xml version="1.0" encoding="utf-8"?>
<!-- Generator: Adobe Illustrator 23.0.4, SVG Export Plug-In . SVG Version: 6.00 Build 0)  -->
<svg version="1.1" id="Capa_1" xmlns="http://www.w3.org/2000/svg" xmlns:xlink="http://www.w3.org/1999/xlink" x="0px" y="0px"
	 viewBox="0 0 30 30" style="enable-background:new 0 0 30 30;" xml:space="preserve">
<style type="text/css">
	.st0{fill:#E7ECED;}
</style>
<title>Mesa de trabajo 1</title>
<g id="XMLID_1989_">
	<path id="XMLID_1990_" class="st0" d="M26.6,24l-5.1-5.1c1.3-1.8,1.8-3.7,1.8-5.8c0-1.4-0.3-2.7-0.8-4c-0.5-1.3-1.3-2.4-2.1-3.3
		c-0.9-0.9-2-1.6-3.3-2.1c-1.3-0.5-2.7-0.8-4-0.8s-2.7,0.3-4,0.8C7.8,4.2,6.7,4.9,5.8,5.8s-1.6,2-2.1,3.3s-0.8,2.7-0.8,4
		c0,1.4,0.3,2.7,0.8,3.9c0.5,1.3,1.3,2.4,2.1,3.3c0.9,0.9,2,1.6,3.3,2.1c1.3,0.5,2.7,0.8,4,0.8c2.1,0,4-0.6,5.8-1.8l5.1,4.9
		c0.4,0.4,0.8,0.5,1.3,0.5s0.9-0.1,1.3-0.5c0.4-0.4,0.5-0.8,0.5-1.3C27.1,24.8,26.9,24.4,26.6,24L26.6,24z M17.8,17.8
		c-1.3,1.3-2.8,1.9-4.5,1.9c-1.8,0-3.3-0.6-4.5-1.9c-1.3-1.3-1.9-2.8-1.9-4.5S7.4,10,8.7,8.7s2.8-1.9,4.5-1.9c1.8,0,3.3,0.6,4.5,1.9
		s1.9,2.8,1.9,4.5S19.1,16.5,17.8,17.8L17.8,17.8z"/>
</g>
</svg>
