<svg xmlns="http://www.w3.org/2000/svg" width="30" height="30" viewBox="0 0 30 30"><path d="M343.879,443.248a15,15,0,1,0,15,15A15,15,0,0,0,343.879,443.248Zm-.668,20.491-.73.724a3.42,3.42,0,0,1-4.8,0,3.367,3.367,0,0,1,0-4.785l2.682-2.662c1.667-1.654,3.582-1.892,4.877-.607a.892.892,0,0,1-1.257,1.267c-.762-.756-1.808.056-2.363.607l-2.683,2.661a1.585,1.585,0,0,0,0,2.253,1.631,1.631,0,0,0,2.29,0l.728-.724a.892.892,0,0,1,1.258,1.265Zm6.871-6.817-2.862,2.839a3.93,3.93,0,0,1-2.693,1.321,2.816,2.816,0,0,1-2.005-.892.892.892,0,1,1,1.257-1.266c.262.26.876.869,2.185-.429l2.861-2.839a1.585,1.585,0,0,0,0-2.253,1.445,1.445,0,0,0-2.111-.178l-.908.9a.892.892,0,1,1-1.258-1.267l.908-.9a3.187,3.187,0,0,1,4.625.178,3.367,3.367,0,0,1,0,4.786Z" transform="translate(-328.879 -443.248)" fill="#fff"/></svg>