<?xml version="1.0" encoding="utf-8"?>
<!-- Generator: Adobe Illustrator 23.0.4, SVG Export Plug-In . SVG Version: 6.00 Build 0)  -->
<svg version="1.1" id="Capa_1" xmlns="http://www.w3.org/2000/svg" xmlns:xlink="http://www.w3.org/1999/xlink" x="0px" y="0px"
	 viewBox="0 0 30 30" style="enable-background:new 0 0 30 30;" xml:space="preserve">
<style type="text/css">
	.st0{fill:#E7ECED;}
</style>
<g id="a">
	<g transform="translate(2.997 3)">
		<path class="st0" d="M23.5,9.3L12.9,1.2h0c0,0-0.1-0.1-0.2-0.1c0,0-0.1-0.1-0.1-0.1h-0.3l-0.1,0l-0.2,0.1h0L1.3,9.3
			c-0.4,0.3-0.4,0.8-0.1,1.1c0.1,0.2,0.4,0.4,0.6,0.4c0.2,0,0.4-0.1,0.5-0.2l0.3-0.2v11.8C2.6,22.6,3,23,3.4,23h17.9
			c0.5,0,0.8-0.4,0.8-0.8V10.4l0.3,0.2c0.3,0.3,0.9,0.3,1.1-0.1C23.9,10.2,23.9,9.7,23.5,9.3C23.5,9.4,23.5,9.3,23.5,9.3L23.5,9.3z"
			/>
	</g>
</g>
</svg>
