<svg xmlns="http://www.w3.org/2000/svg" xmlns:xlink="http://www.w3.org/1999/xlink" width="30" height="30" viewBox="0 0 30 30"><defs><clipPath id="b"><rect width="30" height="30"/></clipPath></defs><g id="a" clip-path="url(#b)"><g transform="translate(2 2)"><path d="M24.2,25a.756.756,0,0,0-.8.8v2.4H2.6V25.8a.756.756,0,0,0-.8-.8.756.756,0,0,0-.8.8V29a.756.756,0,0,0,.8.8H24.2A.756.756,0,0,0,25,29V25.8A.756.756,0,0,0,24.2,25Z" transform="translate(0 -4.8)" fill="#fff" stroke="rgba(255,255,255,0)" stroke-width="1"/><path d="M13.565,21.48h0c.08.08.16.16.24.16l.08.08a.68.68,0,0,0,.64,0,.078.078,0,0,0,.08-.08c.08-.08.16-.08.16-.16h0l6.4-8a.8.8,0,1,0-1.28-.96l-4.88,6.16V1.8a.8.8,0,0,0-1.6,0V18.68l-4.96-6.24a.86.86,0,0,0-1.12-.16.86.86,0,0,0-.16,1.12Z" transform="translate(-1.205)" fill="#fff" stroke="rgba(255,255,255,0)" stroke-width="1"/></g></g></svg>