<svg xmlns="http://www.w3.org/2000/svg" xmlns:xlink="http://www.w3.org/1999/xlink" width="30" height="30" viewBox="0 0 30 30"><defs><clipPath id="b"><rect width="30" height="30"/></clipPath></defs><g id="a" clip-path="url(#b)"><g transform="translate(-1.45 -14.7)"><g transform="translate(2.45 21.7)"><path d="M30.251,29.42c-.265-.324-6.217-7.72-13.79-7.72S2.936,29.1,2.671,29.42a.977.977,0,0,0,0,1.238c.265.324,6.217,7.72,13.79,7.72s13.525-7.425,13.79-7.72A1.062,1.062,0,0,0,30.251,29.42Zm-13.79,6.158A5.54,5.54,0,1,1,22,30.039,5.533,5.533,0,0,1,16.461,35.578Z" transform="translate(-2.45 -21.7)" fill="#fff" stroke="#fff" stroke-width="1"/><circle cx="3.674" cy="3.674" r="3.674" transform="translate(10.337 4.665)" fill="#fff" stroke="#fff" stroke-width="1"/></g></g></g></svg>