<svg xmlns="http://www.w3.org/2000/svg" width="30" height="30" viewBox="0 0 30 30"><g transform="translate(-537.5 -324.512)"><path d="M557.88,352.332v3.206l2.768,1.6v-3.207l2.774-1.6-2.774-1.606Z" transform="translate(-8.152 -10.485)" fill="#fff" fill-rule="evenodd"/><path d="M551.835,341.608l-2.77,1.606v5.616l2.767,1.6h0v-5.614l2.775-1.6Z" transform="translate(-4.626 -6.838)" fill="#fff" fill-rule="evenodd"/><path d="M552.5,324.512a15,15,0,1,0,15,15A15,15,0,0,0,552.5,324.512Zm9,18.016-3.709,2.14h0l-1.583-.913v1.835l-3.706,2.143h0l-2.767-1.6-.542-.313-.4-.232v-1.826l-1.576.908h0l-3.709-2.147,0-.007v-6.666l0-.01h0l3.709-2.142,3.709,2.142v4.238l1.58-.911,1.583.913v-6.648h0l3.709-2.14,3.709,2.14Z" fill="#fff" fill-rule="evenodd"/><path d="M566.7,339.2v6.657l1.187.685v1.371l1.58.913h0v-8.018l2.777-1.606-2.777-1.6Z" transform="translate(-11.679 -5.235)" fill="#fff" fill-rule="evenodd"/></g></svg>