<svg xmlns="http://www.w3.org/2000/svg" xmlns:xlink="http://www.w3.org/1999/xlink" width="30" height="30" viewBox="0 0 30 30"><defs><clipPath id="b"><rect width="30" height="30"/></clipPath></defs><g id="a" clip-path="url(#b)"><path d="M10.125,11.066a.562.562,0,0,0-.562-.562H8.438a.562.562,0,0,0-.562.563V15H5.584a.563.563,0,0,0-.4.962l3.39,3.364a.6.6,0,0,0,.845,0l3.39-3.364a.563.563,0,0,0-.4-.962H10.125Zm7.211-6.473L13.4.661A2.25,2.25,0,0,0,11.815,0H2.25A2.257,2.257,0,0,0,0,2.254v19.5A2.25,2.25,0,0,0,2.25,24h13.5A2.253,2.253,0,0,0,18,21.75V6.186A2.264,2.264,0,0,0,17.336,4.593ZM12,2.437,15.564,6H12ZM15.75,21.75H2.25V2.254h7.5V7.128a1.122,1.122,0,0,0,1.125,1.125H15.75Z" transform="translate(6 3)" fill="#f8f8f8"/></g></svg>