<?xml version="1.0" encoding="utf-8"?>
<!-- Generator: Adobe Illustrator 23.0.4, SVG Export Plug-In . SVG Version: 6.00 Build 0)  -->
<svg version="1.1" id="Capa_1" xmlns="http://www.w3.org/2000/svg" xmlns:xlink="http://www.w3.org/1999/xlink" x="0px" y="0px"
	 viewBox="0 0 30 30" style="enable-background:new 0 0 30 30;" xml:space="preserve">
<style type="text/css">
	.st0{clip-path:url(#SVGID_2_);}
	.st1{fill:#FFFFFF;stroke:#FFFFFF;stroke-width:0.7;}
</style>
<g>
	<defs>
		<rect id="SVGID_1_" width="30" height="30"/>
	</defs>
	<clipPath id="SVGID_2_">
		<use xlink:href="#SVGID_1_"  style="overflow:visible;"/>
	</clipPath>
	<g id="a" class="st0">
		<path class="st1" d="M21.6,10.2c0,0.1-0.1,0.2-0.2,0.2l0,0h-9.5c-0.1,0-0.2-0.1-0.2-0.2c0-0.1,0.1-0.2,0.2-0.2h9.5
			C21.6,10,21.6,10.1,21.6,10.2C21.6,10.2,21.6,10.2,21.6,10.2z M21.5,12.1h-9.5c-0.1,0-0.2,0.1-0.2,0.2c0,0.1,0.1,0.2,0.2,0.2h9.5
			c0.1,0,0.2-0.1,0.2-0.2C21.6,12.2,21.6,12.1,21.5,12.1z M21.5,14.2h-9.5c-0.1,0-0.2,0.1-0.2,0.2c0,0.1,0.1,0.2,0.2,0.2h9.5
			c0.1,0,0.2-0.1,0.2-0.2C21.6,14.3,21.6,14.2,21.5,14.2z M18.3,16.3h-6.3c-0.1,0-0.2,0.1-0.2,0.2c0,0.1,0.1,0.2,0.2,0.2h6.3
			c0.1,0,0.2-0.1,0.2-0.2C18.5,16.4,18.4,16.3,18.3,16.3z M23.8,6.6v15.9c0,1-0.8,1.8-1.8,1.8H8.3c-1,0-1.8-0.8-1.8-1.8v-5.2
			c0-0.1,0.1-0.2,0.2-0.2l0,0h3V6.6c0-0.6,0.5-1.1,1.1-1.1h12C23.4,5.5,23.8,6,23.8,6.6z M8.3,23.9c0.8,0,1.4-0.6,1.4-1.4v-5H6.9v5
			C6.9,23.3,7.5,23.9,8.3,23.9z M23.5,22.5V6.6c0-0.4-0.3-0.7-0.7-0.7h-12c-0.4,0-0.7,0.3-0.7,0.7v10.7l0,0l0,0v5.2
			c0,0.6-0.3,1.1-0.7,1.4h12.7C22.9,23.9,23.5,23.3,23.5,22.5L23.5,22.5z"/>
	</g>
</g>
</svg>
