<?xml version="1.0" encoding="utf-8"?>
<!-- Generator: Adobe Illustrator 23.0.3, SVG Export Plug-In . SVG Version: 6.00 Build 0)  -->
<svg version="1.1" id="Capa_1" xmlns="http://www.w3.org/2000/svg" xmlns:xlink="http://www.w3.org/1999/xlink" x="0px" y="0px"
	 viewBox="0 0 30 30" style="enable-background:new 0 0 30 30;" xml:space="preserve">
<style type="text/css">
	.st0{fill:#FFFFFF;stroke:#FFFFFF;}
</style>
<g id="a">
	<g transform="translate(-558.012 -529.372)">
		<path class="st0" d="M579.1,548.1c-1.2,0-2.4,0.5-3.3,1.5l-6.7-3.9c0.1-0.4,0.2-0.9,0.2-1.4c0-0.5-0.1-0.9-0.2-1.4l6.7-3.9
			c1.6,1.8,4.4,2,6.2,0.4c1.8-1.6,2-4.4,0.4-6.2s-4.4-2-6.2-0.4c-0.9,0.8-1.5,2-1.5,3.3c0,0.5,0.1,0.9,0.2,1.4l-6.7,3.9
			c-1.6-1.8-4.4-2-6.2-0.4c-1.8,1.6-2,4.4-0.4,6.2c0.8,0.9,2,1.5,3.3,1.5c1.2,0,2.4-0.5,3.3-1.5l6.7,3.9c-0.1,0.4-0.2,0.9-0.2,1.4
			c0,2.4,1.9,4.4,4.3,4.4c2.4,0,4.4-1.9,4.4-4.3c0,0,0-0.1,0-0.1C583.4,550.1,581.5,548.1,579.1,548.1z"/>
	</g>
</g>
</svg>
