<svg xmlns="http://www.w3.org/2000/svg" width="20.476" height="31" viewBox="0 0 20.476 31"><g transform="translate(-20.286 -4.5)"><g transform="translate(20.786 5)"><path d="M41.607,9.933H26.017a.3.3,0,0,0-.3.3V36.346a.3.3,0,0,0,.1.22l7.472-6.2a.823.823,0,0,1,1.05,0l7.471,6.2a.3.3,0,0,0,.1-.22V10.233A.3.3,0,0,0,41.607,9.933Z" transform="translate(-24.075 -8.289)" fill="none" stroke="#165b98" stroke-width="1"/><path d="M38.318,5H22.729a1.946,1.946,0,0,0-1.943,1.944V33.057A1.945,1.945,0,0,0,22.729,35a.823.823,0,0,0,.525-.189l7.27-6.032,7.269,6.032a.823.823,0,0,0,.525.189,1.946,1.946,0,0,0,1.944-1.943V6.944A1.946,1.946,0,0,0,38.318,5Z" transform="translate(-20.786 -5)" fill="#165b98" stroke="#165b98" stroke-width="1"/></g></g></svg>