<?xml version="1.0" encoding="utf-8"?>
<!-- Generator: Adobe Illustrator 23.0.4, SVG Export Plug-In . SVG Version: 6.00 Build 0)  -->
<svg version="1.1" id="Capa_1" xmlns="http://www.w3.org/2000/svg" xmlns:xlink="http://www.w3.org/1999/xlink" x="0px" y="0px"
	 viewBox="0 0 30 30" style="enable-background:new 0 0 30 30;" xml:space="preserve">
<style type="text/css">
	.st0{fill:#E7ECED;}
</style>
<g transform="translate(-20.286 -4.5)">
	<g transform="translate(20.786 5)">
		<path class="st0" d="M20.7,3.8H8.3C8.1,3.8,8,3.9,8,4.1v20.9c0,0.1,0,0.1,0.1,0.2l6-5c0.2-0.2,0.6-0.2,0.8,0l6,5
			c0.1,0,0.1-0.1,0.1-0.2V4.1C21,3.9,20.9,3.8,20.7,3.8C20.7,3.8,20.7,3.8,20.7,3.8z"/>
		<path class="st0" d="M20.7,2.5H8.3c-0.9,0-1.6,0.7-1.6,1.6v20.9c0,0.9,0.7,1.6,1.6,1.6c0.2,0,0.3-0.1,0.4-0.2l5.8-4.8l5.8,4.8
			c0.1,0.1,0.3,0.2,0.4,0.2c0.9,0,1.6-0.7,1.6-1.6V4.1C22.3,3.2,21.6,2.5,20.7,2.5z"/>
	</g>
</g>
</svg>
