<?xml version="1.0" encoding="utf-8"?>
<!-- Generator: Adobe Illustrator 23.0.4, SVG Export Plug-In . SVG Version: 6.00 Build 0)  -->
<svg version="1.1" id="Capa_1" xmlns="http://www.w3.org/2000/svg" xmlns:xlink="http://www.w3.org/1999/xlink" x="0px" y="0px"
	 viewBox="0 0 40 40" style="enable-background:new 0 0 40 40;" xml:space="preserve">
<style type="text/css">
	.st0{fill:#165B98;}
</style>
<title>Mesa de trabajo 1</title>
<path class="st0" d="M22.3,20l5.7-5.7c0.6-0.7,0.5-1.7-0.1-2.3c-0.6-0.6-1.5-0.6-2.1,0L20,17.7l-5.7-5.7c-0.7-0.6-1.7-0.5-2.3,0.1
	c-0.6,0.6-0.6,1.5,0,2.1l5.7,5.7l-5.7,5.7c-0.6,0.7-0.5,1.7,0.1,2.3c0.6,0.6,1.5,0.6,2.1,0l5.7-5.7l5.7,5.7c0.7,0.6,1.7,0.5,2.3-0.1
	c0.6-0.6,0.6-1.5,0-2.1L22.3,20z"/>
</svg>
