<svg xmlns="http://www.w3.org/2000/svg" xmlns:xlink="http://www.w3.org/1999/xlink" width="20" height="20" viewBox="0 0 20 20"><defs><clipPath id="b"><rect width="20" height="20"/></clipPath></defs><g id="a" clip-path="url(#b)"><g transform="translate(-4 -4)"><path d="M13.923,5a8.923,8.923,0,1,0,8.923,8.923A8.934,8.934,0,0,0,13.923,5Zm0,17.215a8.292,8.292,0,1,1,8.292-8.292A8.3,8.3,0,0,1,13.923,22.215Zm0-11.511a.661.661,0,1,0-.661-.661A.661.661,0,0,0,13.923,10.7Zm0,1.393a.374.374,0,0,0-.374.374v5.643a.374.374,0,0,0,.748,0V12.472A.374.374,0,0,0,13.923,12.1Z" fill="#165b98" stroke="#165b98" stroke-width="0.5"/></g></g></svg>