<svg xmlns="http://www.w3.org/2000/svg" xmlns:xlink="http://www.w3.org/1999/xlink" width="30" height="30" viewBox="0 0 30 30"><defs><clipPath id="b"><rect width="30" height="30"/></clipPath></defs><g id="a" clip-path="url(#b)"><g transform="translate(-434 -803)"><g transform="translate(436 807)"><path d="M75.3,71.828a11.686,11.686,0,0,0,5.83-5.9A5.82,5.82,0,0,1,75.3,60.1a5.83,5.83,0,1,1,11.659,0h0A11.611,11.611,0,0,1,75.3,71.828Z" transform="translate(-60.656 -49.256)" fill="#fff" stroke="#fff" stroke-width="1"/><path d="M0,17.628a11.686,11.686,0,0,0,5.83-5.9A5.82,5.82,0,0,1,0,5.9,5.894,5.894,0,0,1,5.9,0a5.835,5.835,0,0,1,5.83,5.9A11.714,11.714,0,0,1,0,17.628Z" transform="translate(11.729 17.628) rotate(-180)" fill="#fff" stroke="#fff" stroke-width="1"/></g></g></g></svg>