<svg xmlns="http://www.w3.org/2000/svg" width="50" height="50" viewBox="0 0 50 50"><g transform="translate(-1204 -602)"><circle cx="25" cy="25" r="25" transform="translate(1204 602)" fill="#165b98" opacity="0.58"/><circle cx="19.355" cy="19.355" r="19.355" transform="translate(1209.645 607.645)" fill="#165b98"/><path d="M32.529,5H22.089a1.3,1.3,0,0,0-1.3,1.3V23.788a1.3,1.3,0,0,0,1.3,1.3.547.547,0,0,0,.353-.127l4.868-4.038,4.868,4.038a.546.546,0,0,0,.35.127,1.3,1.3,0,0,0,1.3-1.3V6.3A1.3,1.3,0,0,0,32.529,5Z" transform="translate(1201.802 612.009)" fill="#fff"/></g></svg>