<svg xmlns="http://www.w3.org/2000/svg" xmlns:xlink="http://www.w3.org/1999/xlink" width="30" height="30" viewBox="0 0 30 30"><defs><clipPath id="b"><rect width="30" height="30"/></clipPath></defs><g id="a" clip-path="url(#b)"><path d="M23.092,8.676a.184.184,0,0,1-.184.184H13.383a.184.184,0,1,1,0-.369h9.525A.184.184,0,0,1,23.092,8.676Zm-.184,1.932H13.383a.184.184,0,1,0,0,.369h9.525a.184.184,0,1,0,0-.369Zm0,2.117H13.383a.184.184,0,0,0,0,.369h9.525a.184.184,0,1,0,0-.369Zm-3.175,2.117h-6.35a.184.184,0,0,0,0,.369h6.35a.184.184,0,0,0,0-.369ZM25.29,5.106V21.033A1.769,1.769,0,0,1,23.523,22.8H9.71A1.776,1.776,0,0,1,7.943,21.02V15.84a.184.184,0,0,1,.184-.184h2.98V5.106A1.109,1.109,0,0,1,12.212,4H24.184A1.107,1.107,0,0,1,25.29,5.106ZM9.71,22.432a1.407,1.407,0,0,0,1.4-1.412v-5h-2.8v5A1.407,1.407,0,0,0,9.71,22.432Zm15.211-1.4V5.106a.738.738,0,0,0-.737-.737H12.212a.74.74,0,0,0-.737.737V15.837s0,0,0,0,0,0,0,0V21.02a1.781,1.781,0,0,1-.695,1.412H23.523A1.4,1.4,0,0,0,24.921,21.033Z" transform="translate(-1.443 1.5)" fill="#165b98" stroke="#165b98" stroke-width="0.7"/></g></svg>