<?xml version="1.0" encoding="utf-8"?>
<!-- Generator: Adobe Illustrator 21.1.0, SVG Export Plug-In . SVG Version: 6.00 Build 0)  -->
<svg version="1.1" id="Capa_1" xmlns="http://www.w3.org/2000/svg" xmlns:xlink="http://www.w3.org/1999/xlink" x="0px" y="0px"
	 viewBox="0 0 24 24" style="enable-background:new 0 0 24 24;" xml:space="preserve">
<style type="text/css">
	.st0{fill:#999999;}
</style>
<g>
	<path class="st0" d="M12,6.4l1,0.2c2.7,0.6,3,3.3,3,4.4v5v0.8l0.2,0.2H7.8L8,16.8V16v-5c0-1.1,0.3-3.7,3-4.4L12,6.4 M12,2.5
		c-0.8,0-1.5,0.7-1.5,1.5v0.7C7.6,5.4,6,7.9,6,11v5l-2,2v1h16v-1l-2-2v-5c0-3.1-1.6-5.6-4.5-6.3V4C13.5,3.2,12.8,2.5,12,2.5L12,2.5z
		 M14,20h-4c0,1.1,0.9,2,2,2S14,21.1,14,20L14,20z"/>
</g>
</svg>
