<?xml version="1.0" encoding="utf-8"?>
<!-- Generator: Adobe Illustrator 23.0.3, SVG Export Plug-In . SVG Version: 6.00 Build 0)  -->
<svg version="1.1" id="Capa_1" xmlns="http://www.w3.org/2000/svg" xmlns:xlink="http://www.w3.org/1999/xlink" x="0px" y="0px"
	 viewBox="0 0 252.9 79.9" style="enable-background:new 0 0 252.9 79.9;" xml:space="preserve">
<style type="text/css">
	.st0{clip-path:url(#SVGID_2_);}
	.st1{fill:#3975A6;stroke:#FFFFFF;stroke-width:0.15;stroke-linecap:round;stroke-linejoin:round;}
	.st2{fill:#216095;stroke:#FFFFFF;stroke-width:0.15;stroke-linecap:round;stroke-linejoin:round;}
	.st3{fill:#9EC5E6;stroke:#FFFFFF;stroke-width:0.15;stroke-linecap:round;stroke-linejoin:round;}
	.st4{fill:#C0D7E9;stroke:#FFFFFF;stroke-width:0.15;stroke-linecap:round;stroke-linejoin:round;}
	.st5{fill:#6496C8;stroke:#FFFFFF;stroke-width:0.15;stroke-linecap:round;stroke-linejoin:round;}
	.st6{fill:#295584;stroke:#FFFFFF;stroke-width:0.15;stroke-linecap:round;stroke-linejoin:round;}
	.st7{fill:#254A74;stroke:#FFFFFF;stroke-width:0.15;stroke-linecap:round;stroke-linejoin:round;}
	.st8{fill:#0A3356;stroke:#FFFFFF;stroke-width:0.25;stroke-linecap:round;stroke-linejoin:round;}
	.st9{fill:#FFFFFF;}
	.st10{fill:#165B98;}
	.st11{fill:#717175;}
	.st12{opacity:0.65;enable-background:new    ;}
</style>
<g transform="translate(47.53 162.368)">
	<g>
		<defs>
			<circle id="SVGID_1_" cx="-7.6" cy="-122.4" r="40"/>
		</defs>
		<clipPath id="SVGID_2_">
			<use xlink:href="#SVGID_1_"  style="overflow:visible;"/>
		</clipPath>
		<g class="st0">
			<g transform="translate(-25.83 -8.748)">
				<path class="st1" d="M15.7-117.1l-9.6-1.2l6.5-1.2L15.7-117.1z"/>
				<path class="st2" d="M6.1-118.2l1.1,4.9l8.5-3.8L6.1-118.2z"/>
				<path class="st1" d="M7.3-113.3l10.8-2.7l-2.3-1L7.3-113.3z"/>
				<path class="st2" d="M18.1-116l-3.2,7.9l-2.7-6.4L18.1-116z"/>
				<path class="st1" d="M15.1-120.6l0.6,3.5l2.3,1L15.1-120.6z"/>
				<path class="st1" d="M18.1-116l8.8,7.4l-6.4-15.1L18.1-116z"/>
				<path class="st1" d="M18.1-116l0.9,8.2l-4.1-0.3L18.1-116z"/>
				<path class="st2" d="M19-107.9l3.2-1.7l-4.1-6.5L19-107.9z"/>
				<path class="st1" d="M22.1-109.5l4.7,0.9l-8.8-7.4L22.1-109.5z"/>
				<path class="st3" d="M20.4-123.7l13.1-3.9l-9.7-7.1L20.4-123.7z"/>
				<path class="st1" d="M24.3-114.6l9.2-13l-13.1,3.9L24.3-114.6z"/>
				<path class="st2" d="M24.3-114.6l10.6,1.2l-1.4-14.2L24.3-114.6z"/>
				<path class="st2" d="M26.8-108.6l8.1-4.8l-10.6-1.2L26.8-108.6z"/>
				<path class="st2" d="M34.9-113.4l-2,6l-6.1-1.2L34.9-113.4z"/>
				<path class="st3" d="M1-147.2l12.3-2.8l-9.6,5L1-147.2z"/>
				<path class="st4" d="M13.2-150l-9.6,5l7.4,2L13.2-150z"/>
				<path class="st4" d="M15.5-150.9l-12.8-7.6L1-147.2l12.3-2.8L15.5-150.9z"/>
				<path class="st4" d="M2.7-158.5l-14-1.3L1-147.2L2.7-158.5z"/>
				<path class="st4" d="M-7.7-140.1l-3.5-19.7L1-147.2L-7.7-140.1z"/>
				<path class="st3" d="M2.7-158.5l17.7-3.2l-4.9,10.8L2.7-158.5z"/>
				<path class="st3" d="M15.5-150.9l4.2,9.5l-5.1-4.8L15.5-150.9z"/>
				<path class="st4" d="M20.4-161.7l-0.7,20.3l-4.2-9.5L20.4-161.7z"/>
				<path class="st3" d="M20.4-161.7l14.5,3.2l-14.8,5L20.4-161.7z"/>
				<path class="st3" d="M19.7-141.4l15.3-17.1l-14.8,5L19.7-141.4z"/>
				<path class="st4" d="M23.8-134.7l11.1-23.8l-15.3,17.1L23.8-134.7z"/>
				<path class="st3" d="M19.7-141.4l0,2.9l4.2,3.8L19.7-141.4z"/>
				<path class="st3" d="M23.8-134.7l16-6.7l-4.9-17.1L23.8-134.7z"/>
				<path class="st3" d="M39.8-141.4l-16,6.7l9.7,7.1L39.8-141.4z"/>
				<path class="st4" d="M39.8-141.4l10,9.3l-16.3,4.5L39.8-141.4z"/>
				<path class="st5" d="M33.5-127.6l16.3,2.2v-6.7L33.5-127.6z"/>
				<path class="st2" d="M34.9-113.4l14.8-11.9l-16.3-2.2L34.9-113.4z"/>
				<path class="st1" d="M34.9-113.4l14.3,3.1l0.5-15L34.9-113.4z"/>
				<path class="st1" d="M49.8-125.4l12.5,2.5l-13,12.5L49.8-125.4z"/>
				<path class="st5" d="M49.8-132.1v6.7l12.5,2.5L49.8-132.1z"/>
				<path class="st1" d="M34.3-105l0.6-8.5l-2,6L34.3-105z"/>
				<path class="st2" d="M40.6-104.1l8.6-6.2l-14.3-3.1L40.6-104.1z"/>
				<path class="st6" d="M37.6-94.6l12.2,1.7l-9.2-11.3L37.6-94.6z"/>
				<path class="st7" d="M34.3-105l6.3,0.8l-5.7-9.3L34.3-105z"/>
				<path class="st6" d="M49.2-110.4l0.5,17.5l-9.2-11.3L49.2-110.4z"/>
				<path class="st2" d="M62.3-122.9l-1.3,15.2l-11.7-2.6L62.3-122.9z"/>
				<path class="st7" d="M49.8-92.9l11.1-14.9l-11.7-2.6L49.8-92.9z"/>
				<path class="st7" d="M37.6-94.6l1.3,10.3l10.9-8.6L37.6-94.6z"/>
				<path class="st7" d="M32.4-89.4l6.5,5.1l-1.3-10.3L32.4-89.4z"/>
				<path class="st7" d="M26-83.5l12.9-0.8l-6.5-5.1L26-83.5z"/>
				<path class="st6" d="M24.5-75l1.5-8.5L23.1-78L24.5-75z"/>
				<path class="st7" d="M38.9-84.3L24.5-75l1.5-8.5L38.9-84.3z"/>
				<path class="st4" d="M-7.7-140.1l5.2,5.1l-0.3-5.5L-7.7-140.1z"/>
				<path class="st4" d="M-11.3-159.8l-16.5,1.3l19.3,14.2L-11.3-159.8z"/>
				<path class="st3" d="M-2.5-135l-13.1,11.4l7.9-16.4L-2.5-135z"/>
				<path class="st2" d="M-0.4-116.5l2,3.1L-1-127.6L-0.4-116.5z"/>
				<path class="st3" d="M-27.7-158.5l0.5,18l18.7-3.8L-27.7-158.5z"/>
				<path class="st4" d="M-7.7-140.1l-19.5-0.4l18.7-3.8L-7.7-140.1z"/>
				<path class="st4" d="M-15.6-123.7l-11.6-16.8l19.5,0.4L-15.6-123.7z"/>
				<path class="st1" d="M1.6-113.4l-17.2,7.9l10.8-21l4.5,10.1L1.6-113.4z"/>
				<path class="st2" d="M-15.6-123.7v18.1l10.8-21L-15.6-123.7z"/>
				<path class="st2" d="M1.6-113.4L0.3-96.1l7.5-14.8L1.6-113.4z"/>
				<path class="st7" d="M13.4-107.4L0.3-96.1l7.5-14.8L13.4-107.4z"/>
				<path class="st6" d="M18.1-105.9L0.3-96.1l13.1-11.3L18.1-105.9z"/>
				<path class="st7" d="M16.5-98.7L0.3-96.1l17.8-9.8L16.5-98.7z"/>
				<path class="st6" d="M-15.6-105.6l15.9,9.5l1.3-17.3L-15.6-105.6z"/>
				<path class="st6" d="M22.9-93.5L0.3-96.1l16.2-2.6L22.9-93.5z"/>
				<path class="st6" d="M21-78.6L0.3-96.1l22.6,2.6L21-78.6z"/>
				<path class="st7" d="M-15.6-105.6l-13.2,11.4l29.1-2L-15.6-105.6z"/>
				<path class="st1" d="M-15.6-123.7l-13.2,29.6l13.2-11.5V-123.7z"/>
				<path class="st7" d="M0.3-96.1l-6.4,18L21-78.6L0.3-96.1z"/>
				<path class="st4" d="M-27.2-140.5l-6.5,11.3l18.1,5.5L-27.2-140.5z"/>
				<path class="st4" d="M-27.7-158.5l-19.8-3.9l20.3,21.9L-27.7-158.5z"/>
				<g transform="translate(13.812 27.325)">
					<path class="st5" d="M4.3-143.4L10-162l-8.7,14.1L4.3-143.4z"/>
					<path class="st5" d="M-18.7-153.9l-10.8,2.9l13.1-11.4L-18.7-153.9z"/>
					<path class="st5" d="M-29.4-151l-18.1-5.5l4.9,35.1L-29.4-151z"/>
				</g>
				<path class="st6" d="M-6.1-78l-22.7-16.1l29.1-2L-6.1-78z"/>
				<path class="st6" d="M24.5-75l10.4,7l4-16.3L24.5-75z"/>
				<path class="st6" d="M-6.1-78l-7.7,11.1L21-78.6L-6.1-78z"/>
				<path class="st6" d="M24.5-75l-9.9,12.6L21-78.6L24.5-75z"/>
				<path class="st7" d="M34.9-68l-20.4,5.6L24.5-75L34.9-68z"/>
				<path class="st7" d="M38.9-84.3l16.2,8.2l-5.3-16.7L38.9-84.3z"/>
				<path class="st6" d="M60.9-107.7l-5.8,31.6l-5.3-16.7L60.9-107.7z"/>
				<path class="st7" d="M34.9-68l20.1-8.2l-16.2-8.2L34.9-68z"/>
				<path class="st7" d="M-13.8-66.9l28.3,4.5L21-78.6L-13.8-66.9z"/>
				<path class="st3" d="M34.9-158.5l14.3,3.6l-9.4,13.6L34.9-158.5z"/>
				<path class="st4" d="M49.8-132.1l-0.5-22.9l-9.4,13.6L49.8-132.1z"/>
				<path class="st3" d="M62.2-122.9L61-147.5l-11.3,15.4L62.2-122.9z"/>
				<path class="st3" d="M49.2-154.9l11.8,7.4l-11.3,15.4L49.2-154.9z"/>
				<path class="st1" d="M60.9-107.7l5.3-2.7l-4-12.5L60.9-107.7z"/>
				<path class="st7" d="M58.9-96.8l7.3-13.6l-5.3,2.7L58.9-96.8z"/>
			</g>
			<g transform="translate(13.964 2.762)">
				<path class="st8" d="M-38.8-158.7l-2,6.8l12.1,1.2L-38.8-158.7z"/>
				<path class="st8" d="M-36.2-156.5l7.4,2v3.9L-36.2-156.5z"/>
				<path class="st8" d="M-38.8-158.7l-3.8,6.6l1.8,0.2L-38.8-158.7z"/>
				<path class="st8" d="M-38.8-158.7l-8.7,7.1l4.9-0.4L-38.8-158.7z"/>
				<path class="st8" d="M-42.6-152l0.3,5.5l1.5-5.3L-42.6-152z"/>
				<path class="st8" d="M-42.3-146.6l13.6-4.1l-12.1-1.2L-42.3-146.6z"/>
				<path class="st8" d="M-36.2-156.5l7.4,2v3.9L-36.2-156.5z"/>
				<path class="st8" d="M-28.7-154.5l4.4-7.9l-2.2,0.9L-28.7-154.5z"/>
				<path class="st8" d="M-24.3-162.4l-0.9,4.7l-3.5,3.1L-24.3-162.4z"/>
				<path class="st8" d="M-28.7-154.5l8.6,1.6l-5.1-4.8L-28.7-154.5z"/>
				<path class="st8" d="M-20.1-152.9l-8.6,10.5l8.6-7.6L-20.1-152.9z"/>
				<path class="st8" d="M-20.1-152.9l-8.6,10.5v-12.1L-20.1-152.9z"/>
				<path class="st8" d="M-20.1-150l-8.6,7.6l12.8-3.8L-20.1-150z"/>
				<path class="st8" d="M-19.1-140.9l-9.6-1.4l12.8-3.8L-19.1-140.9z"/>
				<path class="st8" d="M-28.7-142.4l-8,2.1l-2-5.2L-28.7-142.4z"/>
				<path class="st8" d="M-38.7-145.4l-6,7.3l2.3-8.5L-38.7-145.4z"/>
				<path class="st8" d="M-28.7-142.4l-13.6-4.2l13.6-4.1L-28.7-142.4z"/>
				<path class="st8" d="M-44.7-138.1l8-2.1l-2-5.2L-44.7-138.1z"/>
				<path class="st8" d="M-19.1-140.9l-7.8,3.2l-1.8-4.6L-19.1-140.9z"/>
				<path class="st8" d="M-19.1-140.9l-5.6,8.8l-2.2-5.6L-19.1-140.9z"/>
				<path class="st8" d="M-24.7-132.1l-8.7-3.8l0.2-5.3L-24.7-132.1z"/>
				<path class="st8" d="M-33.2-141.2l4.5-1.2l4.1,10.3L-33.2-141.2z"/>
				<path class="st8" d="M-40.8-139.1l7.1,9.4l0.3-6.1L-40.8-139.1z"/>
				<path class="st8" d="M-40.8-139.1l7.6-2.1l-0.2,5.3L-40.8-139.1z"/>
				<path class="st8" d="M-33.4-135.9l-0.3,6.1l6.5-1.2L-33.4-135.9z"/>
				<path class="st8" d="M-33.4-135.9l9.3,7.3l-0.6-3.5L-33.4-135.9z"/>
				<path class="st8" d="M-40.8-139.1l2.6,14.2l4.6-4.8L-40.8-139.1z"/>
				<path class="st8" d="M-40.8-139.1l7.1,9.4l0.3-6.1L-40.8-139.1z"/>
				<path class="st8" d="M-44.7-138.1l4.5,10.1l-0.6-11.1L-44.7-138.1z"/>
				<path class="st8" d="M-33.7-129.7l-4.6,4.8l6.2,2.5L-33.7-129.7z"/>
				<path class="st8" d="M-32.5-124.8l4.9-1.2l2.7,6.4L-32.5-124.8z"/>
				<path class="st8" d="M-32.5-124.8l6.1,5.9l1.5-0.7L-32.5-124.8z"/>
				<path class="st8" d="M-32.5-124.8l0.5,2.4l5.6,3.5L-32.5-124.8z"/>
				<path class="st8" d="M-26.4-118.9l1.5-0.7l4.1,0.3L-26.4-118.9z"/>
				<path class="st8" d="M-21.7-117.4l-4.7-1.5l5.6-0.4L-21.7-117.4z"/>
				<path class="st8" d="M-20.8-119.4l-0.9,1.9l2,0.3l2.1-4L-20.8-119.4z"/>
				<path class="st8" d="M-21.7-117.4l2,0.3l-3.6,6.9L-21.7-117.4z"/>
				<path class="st8" d="M-21.7-117.4l4.1-3.6l-3.2,1.7L-21.7-117.4z"/>
				<path class="st8" d="M-10.4-114l-6.2,1.8l-1.1-8.9L-10.4-114z"/>
				<path class="st8" d="M-17.7-121.1l4.7,0.9l2.6,6.1L-17.7-121.1z"/>
				<path class="st8" d="M-6.8-118.9l-3.5,4.9l-2.6-6.1L-6.8-118.9z"/>
				<path class="st8" d="M-6.8-118.9l1.4,2.5l-4.9,2.5L-6.8-118.9z"/>
				<path class="st8" d="M-23.3-110.2l6.7-2l-1.1-8.9L-23.3-110.2z"/>
				<path class="st8" d="M-23.3-110.2l6.4,5.2l0.3-7.2L-23.3-110.2z"/>
				<path class="st8" d="M-16.9-105l6.5-9l-6.2,1.8L-16.9-105z"/>
				<path class="st8" d="M-16.9-105l14.7-1.1l-8.2-7.9L-16.9-105z"/>
				<path class="st8" d="M-10.4-114l8.2,7.9l-3.3-10.4L-10.4-114z"/>
				<path class="st8" d="M-5.5-116.5l6.3,0.8l-3,9.5L-5.5-116.5z"/>
				<path class="st8" d="M-8.6-105.6l1.2,4.7l5.2-5.2L-8.6-105.6z"/>
				<path class="st8" d="M-16.9-105l9.5,4.1l-1.2-4.7L-16.9-105z"/>
				<path class="st8" d="M-16.9-105l3.1,10l3.2-7.3L-16.9-105z"/>
				<path class="st8" d="M-7.4-100.9l-6.4,5.9l3.2-7.3L-7.4-100.9z"/>
				<path class="st8" d="M-16.9-105l-1.1,8.2l4.2,1.8L-16.9-105z"/>
				<path class="st8" d="M-18-96.8l1.3,7.3l2.9-5.5L-18-96.8z"/>
				<path class="st8" d="M-18-96.8l-0.9,6.7l2.1,0.5L-18-96.8z"/>
				<path class="st8" d="M-18.8-90.1l2.1,0.5l1.4,3L-18.8-90.1z"/>
			</g>
		</g>
	</g>
	<circle class="st9" cx="14.7" cy="-112.6" r="0.8"/>
	<circle class="st9" cx="-2.9" cy="-102.2" r="0.8"/>
	<circle class="st9" cx="0.2" cy="-92.1" r="0.8"/>
	<circle class="st9" cx="12" cy="-103.3" r="0.8"/>
	<circle class="st9" cx="-25.5" cy="-104.8" r="0.8"/>
	<circle class="st9" cx="-5.1" cy="-87.4" r="0.8"/>
	<circle class="st9" cx="23.9" cy="-101.4" r="0.8"/>
	<circle class="st9" cx="3.6" cy="-111.4" r="0.8"/>
	<circle class="st9" cx="-3.7" cy="-118.1" r="0.8"/>
	<circle class="st9" cx="-9.1" cy="-107.5" r="0.8"/>
	<circle class="st9" cx="9.1" cy="-122.1" r="0.8"/>
	<circle class="st9" cx="-8" cy="-124.6" r="0.8"/>
	<circle class="st9" cx="-24.1" cy="-122.1" r="0.8"/>
	<circle class="st9" cx="-41.3" cy="-114.3" r="0.8"/>
	<circle class="st9" cx="-41.5" cy="-132.5" r="0.8"/>
	<circle class="st9" cx="-14.6" cy="-139.6" r="0.8"/>
	<circle class="st9" cx="-26.8" cy="-136.6" r="0.8"/>
	<circle class="st9" cx="-10.7" cy="-129.3" r="0.8"/>
	<circle class="st9" cx="-19.2" cy="-132.9" r="0.8"/>
	<circle class="st9" cx="-24.8" cy="-155.8" r="0.8"/>
	<circle class="st9" cx="-33.6" cy="-148.8" r="0.8"/>
	<circle class="st9" cx="-28.3" cy="-144.1" r="0.8"/>
	<circle class="st9" cx="-6.2" cy="-150.1" r="0.8"/>
	<circle class="st9" cx="-1.8" cy="-143.6" r="0.8"/>
	<circle class="st9" cx="-10.5" cy="-159.3" r="0.8"/>
	<circle class="st9" cx="-14.9" cy="-151.7" r="0.8"/>
	<circle class="st9" cx="13.9" cy="-150.1" r="0.8"/>
	<circle class="st9" cx="7.5" cy="-136.3" r="0.8"/>
	<circle class="st9" cx="-5.4" cy="-132.2" r="0.8"/>
	<circle class="st9" cx="24.1" cy="-141" r="0.8"/>
	<circle class="st9" cx="24.1" cy="-133.9" r="0.8"/>
	<circle class="st9" cx="23.4" cy="-119.1" r="0.8"/>
</g>
<g transform="translate(136.41 169.409)">
	<g>
		<path class="st10" d="M-34.6-144.3c-0.6,0.7-1.4,1.3-2.2,1.6c-1,0.4-2.1,0.6-3.3,0.5c-1.2,0-2.3-0.3-3.3-0.9
			c-1-0.6-1.7-1.4-2.2-2.4c-0.5-1.2-0.8-2.4-0.8-3.7v-1.2c-0.1-1.9,0.5-3.8,1.6-5.3c1.1-1.3,2.8-2,4.5-1.9c1.4-0.1,2.8,0.4,4,1.2
			c1,0.9,1.7,2.2,1.8,3.5h-2.5c-0.1-1.6-1.4-2.8-3-2.7c0,0-0.1,0-0.1,0c-1-0.1-2,0.4-2.7,1.3c-0.7,1.1-1,2.4-0.9,3.7v1.1
			c-0.1,1.3,0.3,2.7,1,3.8c0.7,0.9,1.7,1.4,2.8,1.3c1,0.1,2.1-0.2,2.8-0.9v-2.9h-3.1v-2h5.7L-34.6-144.3z M-29.1-144.4h6.8v2.1h-9.4
			v-14.9h2.6V-144.4z M-9.1-149.4c0,1.3-0.2,2.6-0.8,3.9c-0.5,1-1.2,1.9-2.2,2.5c-1,0.6-2.1,0.9-3.2,0.9c-1.1,0-2.3-0.3-3.2-0.9
			c-1-0.6-1.7-1.5-2.2-2.5c-0.5-1.2-0.8-2.5-0.8-3.8v-0.8c0-1.3,0.2-2.6,0.8-3.9c0.5-1,1.2-1.9,2.2-2.6c1-0.6,2.1-0.9,3.2-0.9
			c1.1,0,2.3,0.3,3.2,0.9c1,0.6,1.7,1.5,2.2,2.5c0.5,1.2,0.8,2.5,0.8,3.8L-9.1-149.4z M-11.7-150.2c0.1-1.3-0.2-2.7-0.9-3.8
			c-0.6-0.9-1.6-1.4-2.7-1.3c-1,0-2,0.5-2.6,1.3c-0.7,1.1-1,2.4-1,3.7v0.9c-0.1,1.3,0.3,2.7,1,3.8c0.6,0.9,1.6,1.4,2.7,1.3
			c1.1,0,2.1-0.5,2.6-1.3c0.7-1.2,1-2.5,0.9-3.8L-11.7-150.2z M-6.5-142.4v-14.9h5.1c1.4-0.1,2.7,0.3,3.9,1c0.9,0.7,1.4,1.9,1.3,3
			c0,0.7-0.2,1.3-0.6,1.8c-0.4,0.6-1,1-1.6,1.3c0.7,0.2,1.4,0.6,1.9,1.2c0.5,0.6,0.7,1.4,0.7,2.2c0.1,1.2-0.4,2.4-1.3,3.2
			c-1.1,0.8-2.5,1.2-3.9,1.1H-6.5z M-3.9-149.1v4.7H-1c0.7,0,1.4-0.2,1.9-0.6c0.5-0.4,0.7-1,0.7-1.7c0.1-1.2-0.7-2.2-1.9-2.4
			c-0.2,0-0.4,0-0.5,0L-3.9-149.1z M-3.9-151h2.5c0.7,0,1.3-0.2,1.9-0.5c0.5-0.4,0.7-1,0.7-1.6c0.1-0.6-0.2-1.2-0.6-1.6
			c-0.6-0.4-1.3-0.5-2-0.5h-2.5V-151z M15.1-145.8H9.3l-1.2,3.5H5.4l5.6-14.9h2.3l5.6,14.9h-2.7L15.1-145.8z M10-147.9h4.3l-2.2-6.2
			L10-147.9z M23.3-144.4h6.8v2.1h-9.4v-14.9h2.6V-144.4z M-40.5-127.1h-2.9v5.8H-46v-14.9h5.2c1.4-0.1,2.8,0.3,4,1.2
			c1,0.8,1.5,2.1,1.4,3.4c0,0.9-0.2,1.8-0.7,2.5c-0.5,0.7-1.2,1.2-2,1.6l3.4,6.2v0.1h-2.8L-40.5-127.1z M-43.4-129.2h2.7
			c0.7,0,1.5-0.2,2.1-0.7c0.5-0.5,0.8-1.1,0.7-1.8c0-0.7-0.2-1.4-0.7-1.9c-0.6-0.5-1.3-0.7-2-0.7h-2.7V-129.2z M-21.1-121.4h-2.6
			v-6.6h-6.7v6.6h-2.6v-14.9h2.6v6.2h6.7v-6.2h2.6L-21.1-121.4z M-9.3-128h-6.1v4.6h7.2v2.1H-18v-14.9h9.7v2.1h-7.1v4.1h6.1
			L-9.3-128z M4.8-136.3v10c0.1,1.4-0.5,2.8-1.5,3.8c-1.1,1-2.6,1.5-4.1,1.4c-1.5,0.1-2.9-0.4-4.1-1.4c-1-1-1.6-2.4-1.5-3.8v-10h2.6
			v10c-0.1,0.8,0.2,1.7,0.8,2.3c0.6,0.6,1.4,0.8,2.2,0.8c2,0,3-1.1,3-3.2v-9.9H4.8z M10.9-136.3l4.3,11.4l4.3-11.4h3.4v14.9h-2.6
			v-4.9l0.3-6.6l-4.4,11.5h-1.9l-4.4-11.5l0.3,6.6v4.9H7.6v-14.9H10.9z M34.5-124.8h-5.8l-1.2,3.5h-2.7l5.6-14.9h2.3l5.7,14.9h-2.7
			L34.5-124.8z M29.4-126.9h4.3l-2.2-6.2L29.4-126.9z M49.7-134.2H45v12.8h-2.6v-12.8h-4.6v-2.1h11.8V-134.2z M63.3-128.4
			c0,1.3-0.2,2.6-0.8,3.8c-0.5,1-1.2,1.9-2.2,2.5c-2,1.2-4.5,1.2-6.5,0c-1-0.6-1.7-1.5-2.2-2.5c-0.5-1.2-0.8-2.5-0.8-3.8v-0.8
			c0-1.3,0.2-2.6,0.8-3.9c0.5-1,1.2-1.9,2.2-2.6c2-1.2,4.5-1.2,6.5,0c1,0.6,1.7,1.5,2.2,2.5c0.5,1.2,0.8,2.5,0.8,3.8V-128.4z
			 M60.7-129.2c0.1-1.3-0.2-2.7-0.9-3.8c-1.1-1.5-3.2-1.8-4.6-0.7c-0.2,0.2-0.5,0.4-0.7,0.7c-0.7,1.1-1,2.4-1,3.7v0.9
			c-0.1,1.3,0.3,2.7,1,3.8c0.6,0.9,1.6,1.4,2.7,1.3c1.1,0,2.1-0.4,2.7-1.3c0.7-1.2,1-2.5,0.9-3.8L60.7-129.2z M68.4-123.4h6.8v2.1
			h-9.4v-14.9h2.6V-123.4z M88.5-128.4c0,1.3-0.2,2.6-0.8,3.8c-0.5,1-1.2,1.9-2.2,2.5c-2,1.2-4.5,1.2-6.5,0c-1-0.6-1.7-1.5-2.2-2.5
			c-0.5-1.2-0.8-2.5-0.8-3.8v-0.8c0-1.3,0.2-2.6,0.8-3.9c0.5-1,1.2-1.9,2.2-2.6c2-1.2,4.5-1.2,6.5,0c1,0.6,1.7,1.5,2.2,2.5
			c0.5,1.2,0.8,2.5,0.8,3.8V-128.4z M85.9-129.2c0.1-1.3-0.2-2.7-0.9-3.8c-1.1-1.5-3.2-1.8-4.6-0.7c-0.2,0.2-0.5,0.4-0.7,0.7
			c-0.7,1.1-1,2.4-1,3.7v0.9c-0.1,1.3,0.3,2.7,1,3.8c0.6,0.9,1.6,1.4,2.7,1.3c1.1,0,2.1-0.4,2.7-1.3c0.7-1.2,1-2.5,0.9-3.8
			L85.9-129.2z M102.5-123.3c-0.6,0.7-1.4,1.3-2.2,1.6c-1,0.4-2.2,0.6-3.3,0.5c-1.2,0-2.3-0.3-3.3-0.9c-1-0.6-1.7-1.4-2.2-2.4
			c-0.5-1.2-0.8-2.4-0.8-3.7v-1.2c-0.1-1.9,0.5-3.8,1.6-5.3c1.1-1.3,2.8-2,4.5-1.9c1.4-0.1,2.8,0.4,4,1.2c1,0.9,1.7,2.2,1.8,3.5
			h-2.5c-0.1-1.6-1.4-2.8-3-2.7c0,0-0.1,0-0.1,0c-1-0.1-2,0.4-2.7,1.3c-0.7,1.1-1,2.4-0.9,3.7v1.1c-0.1,1.3,0.3,2.7,1,3.8
			c0.7,0.9,1.7,1.4,2.8,1.3c1,0.1,2.1-0.2,2.8-0.9v-2.9h-3.1v-2h5.7L102.5-123.3z M110.2-129.2l3.4-7.1h2.9l-5,9.4v5.5h-2.6v-5.5
			l-5-9.4h2.9L110.2-129.2z"/>
	</g>
	<g>
		<path class="st11" d="M-46.9-102.3v-5h1.5c0.4,0,0.9,0.1,1.2,0.3c0.3,0.2,0.4,0.6,0.4,1c0,0.2-0.1,0.5-0.2,0.7
			c-0.1,0.2-0.3,0.3-0.6,0.4c0.3,0.1,0.5,0.2,0.7,0.4c0.2,0.2,0.3,0.5,0.3,0.8c0,0.4-0.1,0.8-0.4,1c-0.3,0.3-0.8,0.4-1.2,0.4H-46.9z
			 M-46.5-104.7v2h1.3c0.3,0,0.6-0.1,0.9-0.3c0.2-0.2,0.3-0.5,0.3-0.8c0-0.3-0.1-0.5-0.3-0.7c-0.2-0.2-0.5-0.3-0.8-0.3L-46.5-104.7z
			 M-46.5-105h1.2c0.3,0,0.6-0.1,0.8-0.2c0.2-0.2,0.3-0.4,0.3-0.7c0-0.3-0.1-0.5-0.3-0.7c-0.3-0.2-0.6-0.2-0.9-0.2h-1.1V-105z
			 M-39.9-104.5l1.5-2.7h0.5l-1.8,3.1v1.9h-0.4v-1.9l-1.8-3.1h0.5L-39.9-104.5z M-32.3-104.3v2h-0.4v-5h1.7c0.4,0,0.9,0.1,1.2,0.4
			c0.3,0.3,0.5,0.7,0.4,1.1c0,0.4-0.1,0.8-0.4,1.1c-0.4,0.3-0.8,0.4-1.3,0.4L-32.3-104.3z M-32.3-104.7h1.3c0.3,0,0.7-0.1,0.9-0.3
			c0.2-0.2,0.3-0.5,0.3-0.8c0-0.3-0.1-0.6-0.3-0.8c-0.3-0.2-0.6-0.3-0.9-0.3h-1.3L-32.3-104.7z M-24.8-103.7H-27l-0.5,1.4H-28l1.9-5
			h0.4l1.9,5h-0.4L-24.8-103.7z M-26.9-104h2l-1-2.7L-26.9-104z M-18-102.3h-0.4l-2.9-4.3v4.3h-0.4v-5h0.4l2.9,4.3v-4.3h0.4V-102.3z
			 M-14.9-102.6h2.5v0.4h-2.9v-5h0.4L-14.9-102.6z M-7.5-103.7h-2.3l-0.5,1.4h-0.4l1.9-5h0.4l1.9,5H-7L-7.5-103.7z M-9.6-104h2
			l-1-2.7L-9.6-104z M-2.5-104.4H-4v2.1h-0.4v-5h1.6c0.4,0,0.9,0.1,1.2,0.4c0.3,0.3,0.5,0.7,0.4,1.1c0,0.3-0.1,0.6-0.3,0.8
			c-0.2,0.2-0.5,0.4-0.8,0.5l1.2,2.1v0h-0.4L-2.5-104.4z M-4-104.7h1.3c0.3,0,0.6-0.1,0.9-0.3c0.2-0.2,0.3-0.5,0.3-0.8
			c0-0.3-0.1-0.6-0.3-0.8c-0.3-0.2-0.6-0.3-0.9-0.3H-4V-104.7z"/>
	</g>
	<g class="st12">
		<rect x="-47.5" y="-112.1" class="st11" width="77.5" height="0.5"/>
	</g>
</g>
</svg>
