<?xml version="1.0" encoding="utf-8"?>
<!-- Generator: Adobe Illustrator 23.0.3, SVG Export Plug-In . SVG Version: 6.00 Build 0)  -->
<svg version="1.1" id="Capa_1" xmlns="http://www.w3.org/2000/svg" xmlns:xlink="http://www.w3.org/1999/xlink" x="0px" y="0px"
	 viewBox="0 0 261 80" style="enable-background:new 0 0 261 80;" xml:space="preserve">
<style type="text/css">
	.st0{clip-path:url(#SVGID_2_);}
	.st1{opacity:0.7;fill:#FFFFFF;stroke:#165B98;stroke-width:0.15;stroke-miterlimit:10;enable-background:new    ;}
	.st2{opacity:0.6;fill:#FFFFFF;stroke:#165B98;stroke-width:0.15;stroke-miterlimit:10;enable-background:new    ;}
	.st3{opacity:0.85;fill:#FFFFFF;stroke:#165B98;stroke-width:0.15;stroke-miterlimit:10;enable-background:new    ;}
	.st4{fill:#FFFFFF;stroke:#165B98;stroke-width:0.15;stroke-miterlimit:10;}
	.st5{opacity:0.95;fill:#FFFFFF;stroke:#165B98;stroke-width:0.15;stroke-miterlimit:10;enable-background:new    ;}
	.st6{opacity:0.29;fill:#FFFFFF;stroke:#165B98;stroke-width:0.15;stroke-miterlimit:10;enable-background:new    ;}
	.st7{fill:#FFFFFF;stroke:#165B98;stroke-width:0.25;stroke-miterlimit:10;}
	.st8{fill:#FFFFFF;}
	.st9{enable-background:new    ;}
</style>
<g>
	<defs>
		<circle id="SVGID_1_" cx="40" cy="40" r="40"/>
	</defs>
	<clipPath id="SVGID_2_">
		<use xlink:href="#SVGID_1_"  style="overflow:visible;"/>
	</clipPath>
	<g class="st0">
		<g transform="translate(-25.856 -8.756)">
			<path class="st1" d="M63.3,45.3l-9.6-1.2l6.5-1.2L63.3,45.3z"/>
			<path class="st1" d="M53.7,44.2l1.1,4.9l8.5-3.8L53.7,44.2z"/>
			<path class="st1" d="M54.9,49.1l10.8-2.7l-2.3-1L54.9,49.1z"/>
			<path class="st1" d="M65.7,46.4l-3.2,7.9l-2.7-6.4L65.7,46.4z"/>
			<path class="st2" d="M62.7,41.8l0.6,3.5l2.4,1L62.7,41.8z"/>
			<path class="st1" d="M65.7,46.4l8.8,7.4L68,38.7L65.7,46.4z"/>
			<path class="st1" d="M65.7,46.4l0.9,8.2l-4.1-0.3L65.7,46.4z"/>
			<path class="st1" d="M66.6,54.6l3.2-1.7l-4.1-6.5L66.6,54.6z"/>
			<path class="st1" d="M69.7,52.9l4.7,0.9l-8.8-7.4L69.7,52.9z"/>
			<path class="st1" d="M68,38.7l13.1-3.9l-9.7-7.1L68,38.7z"/>
			<path class="st1" d="M71.9,47.8l9.2-13L68,38.7L71.9,47.8z"/>
			<path class="st1" d="M71.9,47.8L82.6,49l-1.4-14.2L71.9,47.8z"/>
			<path class="st1" d="M74.4,53.8l8.1-4.8l-10.6-1.2L74.4,53.8z"/>
			<path class="st1" d="M82.6,49l-2,6l-6.1-1.2L82.6,49z"/>
			<path class="st1" d="M48.5,15.2l12.3-2.8l-9.6,5L48.5,15.2z"/>
			<path class="st1" d="M60.8,12.4l-9.6,5l7.4,2L60.8,12.4z"/>
			<path class="st1" d="M63.1,11.5L50.3,3.9l-1.8,11.3l12.3-2.8L63.1,11.5z"/>
			<path class="st1" d="M50.3,3.9l-14-1.3l12.2,12.6L50.3,3.9z"/>
			<path class="st1" d="M39.8,22.3L36.3,2.6l12.2,12.6L39.8,22.3z"/>
			<path class="st1" d="M50.3,3.9L68,0.7l-5,10.8L50.3,3.9z"/>
			<path class="st1" d="M63.1,11.5l4.2,9.5l-5.1-4.8L63.1,11.5z"/>
			<path class="st1" d="M68,0.7L67.3,21l-4.2-9.5L68,0.7z"/>
			<path class="st1" d="M68,0.7l14.5,3.2l-14.8,5L68,0.7z"/>
			<path class="st1" d="M67.3,21L82.5,3.9l-14.8,5L67.3,21z"/>
			<path class="st1" d="M71.4,27.7L82.6,3.9L67.3,21L71.4,27.7z"/>
			<path class="st1" d="M67.3,21l0,2.9l4.2,3.8L67.3,21z"/>
			<path class="st1" d="M71.4,27.7l16-6.7L82.6,3.9L71.4,27.7z"/>
			<path class="st1" d="M87.4,21l-16,6.7l9.7,7.1L87.4,21z"/>
			<path class="st1" d="M87.4,21l10,9.3l-16.3,4.5L87.4,21z"/>
			<path class="st1" d="M81.1,34.8L97.4,37v-6.7L81.1,34.8z"/>
			<path class="st1" d="M82.5,49l14.9-12l-16.3-2.2L82.5,49z"/>
			<path class="st1" d="M82.6,49l14.3,3.1l0.5-15L82.6,49z"/>
			<path class="st1" d="M97.4,37l12.5,2.5l-13,12.6L97.4,37z"/>
			<path class="st1" d="M97.4,30.3V37l12.5,2.5L97.4,30.3z"/>
			<path class="st1" d="M81.9,57.5l0.6-8.5l-2,6L81.9,57.5z"/>
			<path class="st1" d="M88.2,58.3l8.7-6.2L82.6,49L88.2,58.3z"/>
			<path class="st3" d="M85.2,67.8l12.2,1.7l-9.2-11.3L85.2,67.8z"/>
			<path class="st1" d="M81.9,57.5l6.3,0.8L82.6,49L81.9,57.5z"/>
			<path class="st3" d="M96.9,52.1l0.5,17.5l-9.2-11.3L96.9,52.1z"/>
			<path class="st1" d="M109.9,39.5l-1.3,15.2l-11.7-2.6L109.9,39.5z"/>
			<path class="st3" d="M97.4,69.6l11.1-14.9l-11.7-2.6L97.4,69.6z"/>
			<path class="st4" d="M85.2,67.8l1.3,10.3l10.9-8.6L85.2,67.8z"/>
			<path class="st3" d="M80,73.1l6.5,5.1l-1.3-10.3L80,73.1z"/>
			<path class="st4" d="M73.6,78.9l12.9-0.8L80,73.1L73.6,78.9z"/>
			<path class="st5" d="M72.1,87.4l1.5-8.5l-2.9,5.5L72.1,87.4z"/>
			<path class="st5" d="M86.5,78.1l-14.4,9.3l1.5-8.5L86.5,78.1z"/>
			<path class="st1" d="M39.8,22.3l5.2,5.1l-0.3-5.5L39.8,22.3z"/>
			<path class="st1" d="M36.3,2.6L19.8,3.9l19.3,14.2L36.3,2.6z"/>
			<path class="st1" d="M45.1,27.4L31.9,38.7l7.9-16.4L45.1,27.4z"/>
			<path class="st1" d="M47.2,45.9l2,3.1l-2.6-14.2L47.2,45.9z"/>
			<path class="st1" d="M19.8,3.9l0.5,18l18.7-3.8L19.8,3.9z"/>
			<path class="st1" d="M39.8,22.3l-19.5-0.4l18.7-3.8L39.8,22.3z"/>
			<path class="st1" d="M31.9,38.7L20.3,21.9l19.5,0.4L31.9,38.7z"/>
			<path class="st1" d="M49.2,49l-17.2,7.9l10.8-21l4.5,10.1L49.2,49z"/>
			<path class="st1" d="M31.9,38.7v18.1l10.8-21L31.9,38.7z"/>
			<path class="st1" d="M49.2,49l-1.3,17.4l7.5-14.9L49.2,49z"/>
			<path class="st1" d="M61,55L47.9,66.4l7.5-14.9L61,55z"/>
			<path class="st3" d="M65.7,56.5l-17.8,9.8L61,55L65.7,56.5z"/>
			<path class="st3" d="M64.1,63.7l-16.2,2.6l17.8-9.8L64.1,63.7z"/>
			<path class="st1" d="M31.9,56.9l15.9,9.5L49.2,49L31.9,56.9z"/>
			<path class="st3" d="M70.5,68.9l-22.6-2.6l16.2-2.6L70.5,68.9z"/>
			<path class="st3" d="M68.6,83.9L47.9,66.4l22.6,2.6L68.6,83.9z"/>
			<path class="st3" d="M31.9,56.9L18.7,68.3l29.1-2L31.9,56.9z"/>
			<path class="st1" d="M31.9,38.7L18.7,68.3l13.2-11.5V38.7z"/>
			<path class="st4" d="M47.9,66.4l-6.4,18l27.1-0.5L47.9,66.4z"/>
			<path class="st1" d="M20.3,21.9l-6.5,11.3l18.1,5.5L20.3,21.9z"/>
			<path class="st6" d="M19.8,3.9L0,0l20.3,21.9L19.8,3.9z"/>
			<path class="st1" d="M65.7,46.4l5.8-18.7l-8.7,14.1L65.7,46.4z"/>
			<path class="st1" d="M42.7,35.8l-10.8,2.9l13.1-11.4L42.7,35.8z"/>
			<path class="st1" d="M31.9,38.7l-18.1-5.5l4.9,35.1L31.9,38.7z"/>
			<path class="st4" d="M41.5,84.4L18.7,68.3l29.1-2L41.5,84.4z"/>
			<path class="st4" d="M72.1,87.4l10.4,7l4-16.3L72.1,87.4z"/>
			<path class="st4" d="M41.5,84.4l-7.7,11.1l34.8-11.6L41.5,84.4z"/>
			<path class="st4" d="M72.1,87.4l-10,12.6l6.4-16.2L72.1,87.4z"/>
			<path class="st4" d="M82.6,94.5L62.2,100l10-12.6L82.6,94.5z"/>
			<path class="st4" d="M86.5,78.1l16.2,8.2l-5.3-16.7L86.5,78.1z"/>
			<path class="st4" d="M108.6,54.7l-5.8,31.6l-5.3-16.7L108.6,54.7z"/>
			<path class="st4" d="M82.6,94.5l20.2-8.2l-16.2-8.2L82.6,94.5z"/>
			<path class="st4" d="M33.8,95.5l28.4,4.5l6.4-16.2L33.8,95.5z"/>
			<path class="st1" d="M82.5,3.9l14.3,3.6L87.4,21L82.5,3.9z"/>
			<path class="st1" d="M97.4,30.4L96.9,7.4L87.4,21L97.4,30.4z"/>
			<path class="st1" d="M109.9,39.5l-1.2-24.6L97.4,30.3L109.9,39.5z"/>
			<path class="st1" d="M96.9,7.5l11.8,7.4L97.4,30.3L96.9,7.5z"/>
			<path class="st1" d="M108.6,54.7l5.3-2.7l-4-12.5L108.6,54.7z"/>
			<path class="st3" d="M106.5,65.7l7.3-13.7l-5.3,2.7L106.5,65.7z"/>
		</g>
		<g transform="translate(13.978 2.765)">
			<path class="st7" d="M8.7,3.7l-2,6.8l12.1,1.2L8.7,3.7z"/>
			<path class="st7" d="M11.4,5.8l7.4,2v3.9L11.4,5.8z"/>
			<path class="st7" d="M8.7,3.7l-3.8,6.7l1.8,0.2L8.7,3.7z"/>
			<path class="st7" d="M8.7,3.7L0,10.8l4.9-0.4L8.7,3.7z"/>
			<path class="st7" d="M4.9,10.4l0.3,5.5l1.5-5.3L4.9,10.4z"/>
			<path class="st7" d="M5.2,15.8l13.6-4.1L6.7,10.5L5.2,15.8z"/>
			<path class="st7" d="M11.4,5.8l7.4,2v3.9L11.4,5.8z"/>
			<path class="st7" d="M18.8,7.9L23.2,0L21,0.9L18.8,7.9z"/>
			<path class="st7" d="M23.2,0l-0.9,4.8l-3.5,3.1L23.2,0z"/>
			<path class="st7" d="M18.8,7.9l8.6,1.6l-5.1-4.8L18.8,7.9z"/>
			<path class="st7" d="M27.4,9.5L18.8,20l8.6-7.7L27.4,9.5z"/>
			<path class="st7" d="M27.4,9.5L18.8,20V7.9L27.4,9.5z"/>
			<path class="st7" d="M27.4,12.4L18.8,20l12.8-3.8L27.4,12.4z"/>
			<path class="st7" d="M28.5,21.5L18.8,20l12.8-3.8L28.5,21.5z"/>
			<path class="st7" d="M18.8,20l-8,2.1l-2-5.2L18.8,20z"/>
			<path class="st7" d="M8.9,17l-6,7.3l2.4-8.5L8.9,17z"/>
			<path class="st7" d="M18.8,20L5.2,15.8l13.6-4.1L18.8,20z"/>
			<path class="st7" d="M2.9,24.3l8-2.1l-2-5.2L2.9,24.3z"/>
			<path class="st7" d="M28.5,21.5l-7.8,3.2L18.8,20L28.5,21.5z"/>
			<path class="st7" d="M28.5,21.5l-5.6,8.8l-2.2-5.7L28.5,21.5z"/>
			<path class="st7" d="M22.9,30.3l-8.7-3.8l0.2-5.3L22.9,30.3z"/>
			<path class="st7" d="M14.4,21.2l4.5-1.2l4.1,10.3L14.4,21.2z"/>
			<path class="st7" d="M6.7,23.3l7.1,9.4l0.3-6.1L6.7,23.3z"/>
			<path class="st7" d="M6.7,23.3l7.6-2.1l-0.2,5.3L6.7,23.3z"/>
			<path class="st7" d="M14.2,26.5l-0.3,6.1l6.5-1.2L14.2,26.5z"/>
			<path class="st7" d="M14.2,26.5l9.3,7.3l-0.6-3.5L14.2,26.5z"/>
			<path class="st7" d="M6.7,23.3l2.6,14.2l4.6-4.8L6.7,23.3z"/>
			<path class="st7" d="M6.7,23.3l7.1,9.4l0.3-6.1L6.7,23.3z"/>
			<path class="st7" d="M2.9,24.3l4.5,10.1L6.7,23.3L2.9,24.3z"/>
			<path class="st7" d="M13.9,32.7l-4.6,4.8l6.2,2.5L13.9,32.7z"/>
			<path class="st7" d="M15,37.6l4.9-1.2l2.7,6.4L15,37.6z"/>
			<path class="st7" d="M15,37.6l6.1,5.9l1.5-0.7L15,37.6z"/>
			<path class="st7" d="M15,37.6l0.5,2.4l5.6,3.5L15,37.6z"/>
			<path class="st7" d="M21.1,43.5l1.5-0.7l4.1,0.3L21.1,43.5z"/>
			<path class="st7" d="M25.8,45l-4.7-1.5l5.6-0.4L25.8,45z"/>
			<path class="st7" d="M26.7,43L25.8,45l2,0.3l2.1-4L26.7,43z"/>
			<path class="st7" d="M25.8,45l2,0.3l-3.6,6.9L25.8,45z"/>
			<path class="st7" d="M25.8,45l4.1-3.6L26.7,43L25.8,45z"/>
			<path class="st7" d="M37.2,48.4L31,50.2l-1.1-8.9L37.2,48.4z"/>
			<path class="st7" d="M29.9,41.4l4.7,0.9l2.6,6.1L29.9,41.4z"/>
			<path class="st7" d="M40.7,43.5l-3.5,4.9l-2.6-6.1L40.7,43.5z"/>
			<path class="st7" d="M40.7,43.5l1.4,2.5l-4.9,2.5L40.7,43.5z"/>
			<path class="st7" d="M24.3,52.2l6.7-2l-1.1-8.9L24.3,52.2z"/>
			<path class="st7" d="M24.3,52.2l6.4,5.2l0.3-7.2L24.3,52.2z"/>
			<path class="st7" d="M30.7,57.4l6.5-9L31,50.2L30.7,57.4z"/>
			<path class="st7" d="M30.7,57.4l14.7-1.1l-8.2-7.9L30.7,57.4z"/>
			<path class="st7" d="M37.2,48.4l8.2,7.9l-3.3-10.4L37.2,48.4z"/>
			<path class="st7" d="M42.1,45.9l6.3,0.8l-3,9.5L42.1,45.9z"/>
			<path class="st7" d="M39,56.8l1.2,4.7l5.2-5.2L39,56.8z"/>
			<path class="st7" d="M30.7,57.4l9.5,4.1L39,56.8L30.7,57.4z"/>
			<path class="st7" d="M30.7,57.4l3.1,10l3.2-7.3L30.7,57.4z"/>
			<path class="st7" d="M40.2,61.5l-6.4,5.9l3.2-7.3L40.2,61.5z"/>
			<path class="st7" d="M30.7,57.4l-1.1,8.2l4.2,1.8L30.7,57.4z"/>
			<path class="st7" d="M29.6,65.6l1.3,7.3l2.9-5.5L29.6,65.6z"/>
			<path class="st7" d="M29.6,65.6l-0.9,6.7l2.1,0.5L29.6,65.6z"/>
			<path class="st7" d="M28.7,72.4l2.1,0.5l1.4,3L28.7,72.4z"/>
		</g>
	</g>
</g>
<circle class="st8" cx="62.3" cy="49.8" r="0.8"/>
<circle class="st8" cx="44.7" cy="60.3" r="0.8"/>
<circle class="st8" cx="47.8" cy="70.4" r="0.8"/>
<circle class="st8" cx="59.6" cy="59.1" r="0.8"/>
<circle class="st8" cx="22.1" cy="57.6" r="0.8"/>
<circle class="st8" cx="42.5" cy="75.1" r="0.8"/>
<circle class="st8" cx="71.5" cy="61.1" r="0.8"/>
<circle class="st8" cx="51.2" cy="51.1" r="0.8"/>
<circle class="st8" cx="43.9" cy="44.3" r="0.8"/>
<circle class="st8" cx="38.5" cy="54.9" r="0.8"/>
<circle class="st8" cx="56.7" cy="40.3" r="0.8"/>
<circle class="st8" cx="39.6" cy="37.8" r="0.8"/>
<circle class="st8" cx="23.4" cy="40.3" r="0.8"/>
<circle class="st8" cx="6.2" cy="48.2" r="0.8"/>
<circle class="st8" cx="6" cy="29.9" r="0.8"/>
<circle class="st8" cx="33" cy="22.8" r="0.8"/>
<circle class="st8" cx="20.8" cy="25.8" r="0.8"/>
<circle class="st8" cx="36.8" cy="33.1" r="0.8"/>
<circle class="st8" cx="28.4" cy="29.5" r="0.8"/>
<circle class="st8" cx="22.7" cy="6.6" r="0.8"/>
<circle class="st8" cx="14" cy="13.6" r="0.8"/>
<circle class="st8" cx="19.3" cy="18.3" r="0.8"/>
<circle class="st8" cx="41.4" cy="12.3" r="0.8"/>
<circle class="st8" cx="45.8" cy="18.8" r="0.8"/>
<circle class="st8" cx="37.1" cy="3" r="0.8"/>
<circle class="st8" cx="32.7" cy="10.7" r="0.8"/>
<circle class="st8" cx="61.5" cy="12.3" r="0.8"/>
<circle class="st8" cx="55.1" cy="26.1" r="0.8"/>
<circle class="st8" cx="42.2" cy="30.2" r="0.8"/>
<circle class="st8" cx="71.7" cy="21.3" r="0.8"/>
<circle class="st8" cx="71.7" cy="28.5" r="0.8"/>
<circle class="st8" cx="71" cy="43.3" r="0.8"/>
<g transform="translate(88.968 7.083)">
	<g class="st9">
		<path class="st8" d="M13.6,18c-0.6,0.7-1.3,1.3-2.4,1.7s-2.1,0.6-3.4,0.6c-1.3,0-2.5-0.3-3.5-0.9S2.5,17.9,2,16.8
			c-0.5-1.1-0.8-2.4-0.9-3.9v-1.2c0-2.4,0.6-4.2,1.7-5.5c1.1-1.3,2.7-2,4.7-2c1.7,0,3.1,0.4,4.1,1.3c1,0.9,1.6,2.1,1.8,3.7h-2.7
			c-0.3-1.9-1.4-2.8-3.3-2.8c-1.2,0-2.1,0.4-2.8,1.3s-1,2.2-1,3.9v1.2c0,1.7,0.4,3,1.1,3.9c0.7,0.9,1.7,1.4,3,1.4
			c1.4,0,2.4-0.3,3-0.9v-3H7.7V12h5.9V18z"/>
		<path class="st8" d="M19.3,17.8h7.1V20h-9.8V4.4h2.7V17.8z"/>
		<path class="st8" d="M40.3,12.6c0,1.5-0.3,2.9-0.8,4c-0.5,1.2-1.3,2-2.3,2.7c-1,0.6-2.1,0.9-3.4,0.9c-1.3,0-2.4-0.3-3.4-0.9
			c-1-0.6-1.8-1.5-2.3-2.6c-0.5-1.1-0.8-2.5-0.8-4v-0.9c0-1.5,0.3-2.9,0.8-4c0.5-1.2,1.3-2.1,2.3-2.7c1-0.6,2.1-0.9,3.4-0.9
			s2.4,0.3,3.4,0.9c1,0.6,1.7,1.5,2.3,2.6c0.5,1.2,0.8,2.5,0.8,4V12.6z M37.5,11.8c0-1.7-0.3-3.1-1-4S35,6.4,33.8,6.4
			c-1.2,0-2.1,0.5-2.8,1.4c-0.7,0.9-1,2.2-1,3.9v0.9c0,1.7,0.3,3,1,4c0.7,0.9,1.6,1.4,2.8,1.4c1.2,0,2.1-0.5,2.8-1.4
			c0.6-0.9,1-2.3,1-4V11.8z"/>
		<path class="st8" d="M43,20V4.4h5.4c1.8,0,3.1,0.4,4,1.1s1.4,1.8,1.4,3.2c0,0.7-0.2,1.4-0.6,1.9s-1,1-1.7,1.3
			c0.8,0.2,1.5,0.7,2,1.3c0.5,0.6,0.7,1.4,0.7,2.3c0,1.5-0.5,2.6-1.4,3.4c-0.9,0.8-2.3,1.2-4,1.2H43z M45.7,10.9h2.7
			c0.8,0,1.5-0.2,2-0.6C50.8,10,51,9.4,51,8.7c0-0.8-0.2-1.3-0.7-1.7s-1.1-0.5-2.1-0.5h-2.6V10.9z M45.7,12.9v4.9h3
			c0.9,0,1.5-0.2,2-0.6s0.7-1,0.7-1.8c0-1.6-0.8-2.4-2.5-2.5H45.7z"/>
		<path class="st8" d="M65.6,16.4h-6.1L58.3,20h-2.8l5.9-15.6h2.4L69.7,20h-2.8L65.6,16.4z M60.3,14.2h4.5l-2.3-6.5L60.3,14.2z"/>
		<path class="st8" d="M74.2,17.8h7.1V20h-9.8V4.4h2.7V17.8z"/>
	</g>
	<g class="st9">
		<path class="st8" d="M7.3,36h-3v6H1.6V26.4h5.5c1.8,0,3.2,0.4,4.2,1.2c1,0.8,1.5,2,1.5,3.5c0,1-0.3,1.9-0.8,2.6s-1.2,1.2-2.1,1.6
			l3.5,6.5V42h-2.9L7.3,36z M4.3,33.8h2.8c0.9,0,1.6-0.2,2.1-0.7C9.8,32.6,10,32,10,31.2c0-0.8-0.2-1.5-0.7-1.9
			c-0.5-0.5-1.2-0.7-2.1-0.7H4.3V33.8z"/>
		<path class="st8" d="M27.7,42H25v-6.9h-7V42h-2.7V26.4H18v6.5h7v-6.5h2.7V42z"/>
		<path class="st8" d="M40.1,35h-6.4v4.8h7.5V42H30.9V26.4h10.2v2.2h-7.4v4.3h6.4V35z"/>
		<path class="st8" d="M54.8,26.4v10.5c0,1.7-0.5,3-1.6,3.9c-1.1,1-2.5,1.5-4.2,1.5c-1.8,0-3.2-0.5-4.3-1.4c-1.1-1-1.6-2.3-1.6-4
			V26.4h2.7v10.4c0,1,0.3,1.8,0.8,2.4C47.2,39.7,48,40,49,40c2.1,0,3.1-1.1,3.1-3.3V26.4H54.8z"/>
		<path class="st8" d="M61.3,26.4l4.5,12l4.5-12h3.5V42h-2.7v-5.2l0.3-6.9L66.7,42h-1.9l-4.6-12l0.3,6.9V42h-2.7V26.4H61.3z"/>
		<path class="st8" d="M85.9,38.4h-6.1L78.6,42h-2.8l5.9-15.6h2.4L90.1,42h-2.8L85.9,38.4z M80.6,36.2h4.5l-2.3-6.5L80.6,36.2z"/>
		<path class="st8" d="M101.8,28.6H97V42h-2.7V28.6h-4.8v-2.2h12.4V28.6z"/>
		<path class="st8" d="M116.1,34.6c0,1.5-0.3,2.9-0.8,4c-0.5,1.2-1.3,2-2.3,2.7c-1,0.6-2.1,0.9-3.4,0.9c-1.3,0-2.4-0.3-3.4-0.9
			c-1-0.6-1.8-1.5-2.3-2.6c-0.5-1.1-0.8-2.5-0.8-4v-0.9c0-1.5,0.3-2.9,0.8-4c0.5-1.2,1.3-2.1,2.3-2.7c1-0.6,2.1-0.9,3.4-0.9
			s2.4,0.3,3.4,0.9c1,0.6,1.7,1.5,2.3,2.6c0.5,1.2,0.8,2.5,0.8,4V34.6z M113.4,33.8c0-1.7-0.3-3.1-1-4s-1.6-1.4-2.8-1.4
			c-1.2,0-2.1,0.5-2.8,1.4c-0.7,0.9-1,2.2-1,3.9v0.9c0,1.7,0.3,3,1,4c0.7,0.9,1.6,1.4,2.8,1.4c1.2,0,2.1-0.5,2.8-1.4
			c0.6-0.9,1-2.3,1-4V33.8z"/>
		<path class="st8" d="M121.5,39.8h7.1V42h-9.8V26.4h2.7V39.8z"/>
		<path class="st8" d="M142.5,34.6c0,1.5-0.3,2.9-0.8,4c-0.5,1.2-1.3,2-2.3,2.7c-1,0.6-2.1,0.9-3.4,0.9c-1.3,0-2.4-0.3-3.4-0.9
			c-1-0.6-1.8-1.5-2.3-2.6c-0.5-1.1-0.8-2.5-0.8-4v-0.9c0-1.5,0.3-2.9,0.8-4c0.5-1.2,1.3-2.1,2.3-2.7c1-0.6,2.1-0.9,3.4-0.9
			s2.4,0.3,3.4,0.9c1,0.6,1.7,1.5,2.3,2.6c0.5,1.2,0.8,2.5,0.8,4V34.6z M139.8,33.8c0-1.7-0.3-3.1-1-4s-1.6-1.4-2.8-1.4
			c-1.2,0-2.1,0.5-2.8,1.4c-0.7,0.9-1,2.2-1,3.9v0.9c0,1.7,0.3,3,1,4c0.7,0.9,1.6,1.4,2.8,1.4c1.2,0,2.1-0.5,2.8-1.4
			c0.6-0.9,1-2.3,1-4V33.8z"/>
		<path class="st8" d="M157.2,40c-0.6,0.7-1.3,1.3-2.4,1.7s-2.1,0.6-3.4,0.6c-1.3,0-2.5-0.3-3.5-0.9s-1.8-1.4-2.3-2.6
			c-0.5-1.1-0.8-2.4-0.9-3.9v-1.2c0-2.4,0.6-4.2,1.7-5.5c1.1-1.3,2.7-2,4.7-2c1.7,0,3.1,0.4,4.1,1.3c1,0.9,1.6,2.1,1.8,3.7h-2.7
			c-0.3-1.9-1.4-2.8-3.3-2.8c-1.2,0-2.1,0.4-2.8,1.3s-1,2.2-1,3.9v1.2c0,1.7,0.4,3,1.1,3.9c0.7,0.9,1.7,1.4,3,1.4
			c1.4,0,2.4-0.3,3-0.9v-3h-3.2V34h5.9V40z"/>
		<path class="st8" d="M165.3,33.8l3.6-7.4h3l-5.2,9.9V42h-2.7v-5.8l-5.3-9.9h3L165.3,33.8z"/>
	</g>
	<g class="st9">
		<path class="st8" d="M1.3,66V56h2.9c1.1,0,1.9,0.2,2.4,0.7c0.6,0.4,0.8,1.1,0.8,1.9c0,0.5-0.1,1-0.4,1.3s-0.7,0.7-1.2,0.8
			c0.6,0.1,1,0.4,1.4,0.9c0.4,0.4,0.5,1,0.5,1.5c0,0.9-0.3,1.6-0.9,2.1S5.6,66,4.6,66H1.3z M2.1,60.5h2.3c0.7,0,1.2-0.2,1.6-0.5
			c0.4-0.3,0.6-0.8,0.6-1.4c0-0.6-0.2-1.1-0.6-1.4c-0.4-0.3-1-0.5-1.8-0.5H2.1V60.5z M2.1,61.2v4.1h2.5c0.7,0,1.3-0.2,1.7-0.5
			C6.8,64.4,7,63.9,7,63.2c0-0.6-0.2-1.1-0.6-1.5c-0.4-0.4-1-0.5-1.7-0.5H2.1z"/>
		<path class="st8" d="M15.2,61.5l3-5.4h1l-3.6,6.2V66h-0.8v-3.7L11.2,56h1L15.2,61.5z"/>
		<path class="st8" d="M30.5,61.9V66h-0.8V56H33c1,0,1.9,0.3,2.5,0.8c0.6,0.5,0.9,1.3,0.9,2.2c0,0.9-0.3,1.7-0.9,2.2
			c-0.6,0.5-1.4,0.8-2.5,0.8H30.5z M30.5,61.2H33c0.8,0,1.4-0.2,1.9-0.6c0.4-0.4,0.6-0.9,0.6-1.6c0-0.7-0.2-1.2-0.6-1.6
			c-0.4-0.4-1-0.6-1.8-0.6h-2.6V61.2z"/>
		<path class="st8" d="M45.5,63.2H41L40,66h-0.9l3.8-10h0.8l3.8,10h-0.9L45.5,63.2z M41.2,62.5h4l-2-5.4L41.2,62.5z"/>
		<path class="st8" d="M59.1,66h-0.8l-5.7-8.5V66h-0.8V56h0.8l5.7,8.5V56h0.8V66z"/>
		<path class="st8" d="M65.3,65.3h4.9V66h-5.8V56h0.8V65.3z"/>
		<path class="st8" d="M80.1,63.2h-4.5l-1,2.8h-0.9l3.8-10h0.8L82,66h-0.9L80.1,63.2z M75.8,62.5h4l-2-5.4L75.8,62.5z"/>
		<path class="st8" d="M90,61.8h-2.9V66h-0.8V56h3.2c1.1,0,1.9,0.3,2.5,0.8c0.6,0.5,0.9,1.2,0.9,2.2c0,0.6-0.2,1.2-0.6,1.7
			c-0.4,0.5-0.9,0.8-1.5,1l2.5,4.2V66h-0.9L90,61.8z M87.1,61.1h2.6c0.7,0,1.3-0.2,1.7-0.6c0.4-0.4,0.6-0.9,0.6-1.6
			c0-0.7-0.2-1.2-0.7-1.6c-0.4-0.4-1.1-0.6-1.9-0.6h-2.4V61.1z"/>
	</g>
</g>
</svg>
