<svg xmlns="http://www.w3.org/2000/svg" xmlns:xlink="http://www.w3.org/1999/xlink" width="30" height="30" viewBox="0 0 30 30"><defs><clipPath id="b"><rect width="30" height="30"/></clipPath></defs><g id="a" clip-path="url(#b)"><g transform="translate(2 3)"><path d="M25.3,12.326A12.443,12.443,0,0,1,6.877,23.118L0,25.3l2.242-6.613A12.2,12.2,0,0,1,.46,12.326a12.422,12.422,0,0,1,24.844,0ZM12.882,1.963A10.415,10.415,0,0,0,2.438,12.326,10.254,10.254,0,0,0,4.428,18.4l-1.3,3.849,4.013-1.276a10.454,10.454,0,0,0,16.19-8.648A10.416,10.416,0,0,0,12.882,1.963Zm6.273,13.2c-.077-.126-.279-.2-.584-.353s-1.8-.882-2.081-.983-.483-.151-.685.151-.786.983-.964,1.184-.355.227-.66.076a8.334,8.334,0,0,1-2.448-1.5,9.109,9.109,0,0,1-1.694-2.092c-.177-.3-.019-.466.134-.616s.3-.353.457-.529a2.025,2.025,0,0,0,.3-.5.55.55,0,0,0-.025-.529c-.076-.151-.685-1.638-.939-2.243s-.507-.5-.685-.5S8.9,6.7,8.7,6.7a1.124,1.124,0,0,0-.812.378A3.378,3.378,0,0,0,6.823,9.6a5.846,5.846,0,0,0,1.243,3.124,12.447,12.447,0,0,0,5.2,4.561c3.1,1.209,3.1.806,3.654.755A3.08,3.08,0,0,0,18.977,16.6,2.519,2.519,0,0,0,19.155,15.165Z" fill="#fff" stroke="rgba(255,255,255,0)" stroke-width="1"/></g></g></svg>