<svg xmlns="http://www.w3.org/2000/svg" xmlns:xlink="http://www.w3.org/1999/xlink" width="30" height="30" viewBox="0 0 30 30"><defs><clipPath id="b"><rect width="30" height="30"/></clipPath></defs><g id="a" clip-path="url(#b)"><g transform="translate(5.104 5)"><path d="M694.4,1801.366h4.358v14.021H694.4Zm2.18-6.969a2.526,2.526,0,1,1-2.526,2.528,2.527,2.527,0,0,1,2.526-2.528" transform="translate(-694.049 -1794.396)" fill="#fff"/><path d="M700.044,1800.081h4.181V1802h.059a4.579,4.579,0,0,1,4.124-2.264c4.413,0,5.228,2.9,5.228,6.677v7.691h-4.357v-6.818c0-1.625-.027-3.718-2.265-3.718-2.266,0-2.613,1.773-2.613,3.6v6.935h-4.357Z" transform="translate(-692.607 -1793.112)" fill="#fff"/></g></g></svg>