<svg xmlns="http://www.w3.org/2000/svg" xmlns:xlink="http://www.w3.org/1999/xlink" width="30" height="30" viewBox="0 0 30 30"><defs><clipPath id="b"><rect width="30" height="30"/></clipPath></defs><g id="a" clip-path="url(#b)"><g transform="translate(3 5)"><path d="M661.067,1816.047a14.227,14.227,0,0,0,14.325-14.326c0-.217,0-.434-.015-.65a10.18,10.18,0,0,0,2.511-2.608,10.034,10.034,0,0,1-2.889.793,5.061,5.061,0,0,0,2.213-2.785,10.132,10.132,0,0,1-3.2,1.224,5.034,5.034,0,0,0-8.708,3.441,5.114,5.114,0,0,0,.129,1.15,14.31,14.31,0,0,1-10.379-5.261,5.039,5.039,0,0,0,1.559,6.72,4.99,4.99,0,0,1-2.28-.63c0,.022,0,.042,0,.064a5.035,5.035,0,0,0,4.037,4.935,4.943,4.943,0,0,1-2.271.086,5.042,5.042,0,0,0,4.7,3.5,10.1,10.1,0,0,1-6.254,2.155,10.327,10.327,0,0,1-1.2-.07,14.237,14.237,0,0,0,7.716,2.263" transform="translate(-653.351 -1796.103)" fill="#fff"/></g></g></svg>