<?xml version="1.0" encoding="iso-8859-1"?>
<!-- Generator: Adobe Illustrator 19.0.0, SVG Export Plug-In . SVG Version: 6.00 Build 0)  -->
<svg version="1.1" id="Capa_1" xmlns="http://www.w3.org/2000/svg" xmlns:xlink="http://www.w3.org/1999/xlink" x="0px" y="0px"
	 viewBox="0 0 480 480" style="enable-background:new 0 0 480 480;" xml:space="preserve">
<g>
	<g>
		<path d="M448,0H80C62.327,0,48,14.327,48,32v392H8c-4.418,0-8,3.582-8,8v16c0,17.673,14.327,32,32,32h368
			c17.673,0,32-14.327,32-32V136h40c4.418,0,8-3.582,8-8V32C480,14.327,465.673,0,448,0z M32,464c-8.837,0-16-7.163-16-16v-8h352v8
			c-0.009,5.619,1.474,11.141,4.296,16H32z M416,32v416c0,8.837-7.163,16-16,16s-16-7.163-16-16v-16c0-4.418-3.582-8-8-8H64V32
			c0-8.837,7.163-16,16-16h340.448C417.569,20.843,416.033,26.366,416,32z M464,120h-32V32c0-8.837,7.163-16,16-16s16,7.163,16,16
			V120z"/>
	</g>
</g>
<g>
	<g>
		<path d="M249.888,80L224,67.056V48h-16v19.056l-24,12l-24-12V48h-16v19.056L116.424,80.84c-2.712,1.355-4.425,4.128-4.424,7.16v32
			H96v16h22.112L144,148.944V168h16v-19.056l24-12l24,12V168h16v-19.056l27.576-13.744c2.725-1.362,4.441-4.153,4.424-7.2V96h16V80
			H249.888z M176,123.056l-24,12l-24-12V92.944l24-12l24,12V123.056z M240,123.056l-24,12l-24-12V92.944l24-12l24,12V123.056z"/>
	</g>
</g>
<g>
	<g>
		<rect x="88" y="232" width="136" height="16"/>
	</g>
</g>
<g>
	<g>
		<rect x="88" y="264" width="104" height="16"/>
	</g>
</g>
<g>
	<g>
		<rect x="136" y="200" width="88" height="16"/>
	</g>
</g>
<g>
	<g>
		<rect x="256" y="40" width="16" height="16"/>
	</g>
</g>
<g>
	<g>
		<rect x="104" y="200" width="16" height="16"/>
	</g>
</g>
<g>
	<g>
		<rect x="264" y="384" width="128" height="16"/>
	</g>
</g>
<g>
	<g>
		<rect x="312" y="352" width="80" height="16"/>
	</g>
</g>
<g>
	<g>
		<rect x="280" y="352" width="16" height="16"/>
	</g>
</g>
<g>
	<g>
		<rect x="304" y="112" width="88" height="16"/>
	</g>
</g>
<g>
	<g>
		<rect x="336" y="80" width="56" height="16"/>
	</g>
</g>
<g>
	<g>
		<rect x="304" y="80" width="16" height="16"/>
	</g>
</g>
<g>
	<g>
		<rect x="288" y="40" width="16" height="16"/>
	</g>
</g>
<g>
	<g>
		<rect x="88" y="360" width="16" height="40"/>
	</g>
</g>
<g>
	<g>
		<rect x="120" y="336" width="16" height="64"/>
	</g>
</g>
<g>
	<g>
		<rect x="152" y="360" width="16" height="40"/>
	</g>
</g>
<g>
	<g>
		<rect x="184" y="328" width="16" height="72"/>
	</g>
</g>
<g>
	<g>
		<rect x="216" y="376" width="16" height="24"/>
	</g>
</g>
<g>
	<g>
		<path d="M373.445,250.766c-10.609-4.704-22.924-3.382-32.293,3.466l-29.4-11.752c0.064-0.8,0.248-1.6,0.248-2.48
			c-0.037-3.601-0.689-7.17-1.928-10.552l28.8-21.6c5.801,5.222,13.323,8.124,21.128,8.152c17.673,0,32-14.327,32-32
			s-14.327-32-32-32c-17.673,0-32,14.327-32,32c0.037,3.601,0.689,7.17,1.928,10.552l-28.8,21.6
			c-13.216-11.667-33.388-10.41-45.054,2.806c-11.667,13.216-10.41,33.388,2.806,45.054c13.216,11.667,33.388,10.41,45.054-2.806
			c0.983-1.114,1.887-2.295,2.706-3.534l24,9.6c-7.262,16.378,0.128,35.543,16.506,42.805c16.378,7.262,35.543-0.128,42.805-16.506
			S389.823,258.028,373.445,250.766z M360,168c8.837,0,16,7.163,16,16s-7.163,16-16,16s-16-7.163-16-16S351.163,168,360,168z
			 M280,256c-8.837,0-16-7.163-16-16s7.163-16,16-16s16,7.163,16,16S288.837,256,280,256z M360,296c-8.837,0-16-7.163-16-16
			s7.163-16,16-16s16,7.163,16,16S368.837,296,360,296z"/>
	</g>
</g>
<g>
</g>
<g>
</g>
<g>
</g>
<g>
</g>
<g>
</g>
<g>
</g>
<g>
</g>
<g>
</g>
<g>
</g>
<g>
</g>
<g>
</g>
<g>
</g>
<g>
</g>
<g>
</g>
<g>
</g>
</svg>
