<svg id="Capa_1" enable-background="new 0 0 511 511" height="512" viewBox="0 0 511 511" width="512" xmlns="http://www.w3.org/2000/svg"><g><path d="m333.469 465.5-26.015-30.5h-14.972v-30h-15v30h-44.982v-59.961h44.982v14.961h15v-14.96h172.513v-269.308h-89.951v-25.4l-49.832-49.832h-190.256v75.232h-89.952v269.308h172.496v59.96h-14.954l-26.016 30.5h-176.53v15h511v-15zm116.526-344.768v14.455h-14.995v15h14.995v165.252h-74.951v-15.459h59.965v-29.98h-15v14.98h-104.508v-53.741l52.254 34.15 52.254-34.15v23.69h15v-45.051h-59.965v-59.691h14.956v-15h-14.956v-14.455zm-120.39-64.626 18.832 18.832h-18.832zm72.718 168.772-34.568 22.592-34.568-22.592zm-87.718-179.378v44.438h45.438v119.94h-59.543v90.102h59.543v15.459h-210.087v-269.939zm-179.649 269.939h-74.952v-165.252h74.952zm0-194.707v14.455h-74.952v-14.455zm-74.952 209.707h389.991v29.6h-389.991zm149.463 119.561h91.065l13.221 15.5h-117.507z"/><path d="m405 135.187h15v15h-15z"/><path d="m75 165h15v15h-15z"/><path d="m75 194.868h15v30.131h-15z"/><path d="m300.501 59.833h-135.001v45.666h135.001zm-15 30.666h-105.001v-15.666h105.001z"/><path d="m165 120.5h15v15h-15z"/><path d="m195 120.5h90v15h-90z"/><path d="m165 150.5h15v15h-15z"/><path d="m195 150.5h149.825v15h-149.825z"/><path d="m165 180.501h15v15h-15z"/><path d="m165 210.502h120v15h-120z"/><path d="m285.499 299.98v-59.478h-30.499v15h15.499v29.478h-90.083l-.331-29.478h59.915v-15h-75.085l.669 59.478z"/><path d="m195 180.501h149.825v15h-149.825z"/></g></svg>