<?xml version="1.0" encoding="iso-8859-1"?>
<!-- Generator: Adobe Illustrator 19.0.0, SVG Export Plug-In . SVG Version: 6.00 Build 0)  -->
<svg version="1.1" id="Capa_1" xmlns="http://www.w3.org/2000/svg" xmlns:xlink="http://www.w3.org/1999/xlink" x="0px" y="0px"
	 viewBox="0 0 512 512" style="enable-background:new 0 0 512 512;" xml:space="preserve">
<g>
	<g>
		<path d="M467,0H45C20.187,0,0,20.187,0,45v422c0,24.813,20.187,45,45,45h422c24.813,0,45-20.187,45-45V45
			C512,20.187,491.813,0,467,0z M30,45c0-8.271,6.729-15,15-15h76v90H30V45z M482,467c0,8.271-6.729,15-15,15H45
			c-8.271,0-15-6.729-15-15V150h452V467z M482,120H151V30h316c8.271,0,15,6.729,15,15V120z"/>
	</g>
</g>
<g>
	<g>
		<path d="M437,60h-31c-8.284,0-15,6.716-15,15s6.716,15,15,15h31c8.284,0,15-6.716,15-15S445.284,60,437,60z"/>
	</g>
</g>
<g>
	<g>
		<path d="M346,60h-30c-8.284,0-15,6.716-15,15s6.716,15,15,15h30c8.284,0,15-6.716,15-15S354.284,60,346,60z"/>
	</g>
</g>
<g>
	<g>
		<path d="M256,60h-30c-8.284,0-15,6.716-15,15s6.716,15,15,15h30c8.284,0,15-6.716,15-15S264.284,60,256,60z"/>
	</g>
</g>
<g>
	<g>
		<path d="M416.606,335.393l-150-150c-5.857-5.858-15.355-5.858-21.213,0l-150,150c-4.29,4.29-5.573,10.742-3.252,16.347
			C94.464,357.345,99.933,361,106,361h45v76c0,8.284,6.716,15,15,15h60c8.284,0,15-6.716,15-15v-46h30v46c0,8.284,6.716,15,15,15h60
			c8.284,0,15-6.716,15-15v-76h45c6.067,0,11.536-3.655,13.858-9.26C422.179,346.135,420.896,339.683,416.606,335.393z M346,331
			c-8.284,0-15,6.716-15,15v76h-30v-46c0-8.284-6.716-15-15-15h-60c-8.284,0-15,6.716-15,15v46h-30v-76c0-8.284-6.716-15-15-15
			h-23.787L256,217.213L369.787,331H346z"/>
	</g>
</g>
<g>
</g>
<g>
</g>
<g>
</g>
<g>
</g>
<g>
</g>
<g>
</g>
<g>
</g>
<g>
</g>
<g>
</g>
<g>
</g>
<g>
</g>
<g>
</g>
<g>
</g>
<g>
</g>
<g>
</g>
</svg>
