<svg height="512pt" viewBox="-50 0 512 512" width="512pt" xmlns="http://www.w3.org/2000/svg"><path d="m412.5 415.730469v-354.425781c0-4.144532-3.359375-7.5-7.5-7.5h-175.886719c-4.144531 0-7.5 3.355468-7.5 7.5 0 4.140624 3.355469 7.5 7.5 7.5h168.386719v340.960937h-268.5v-340.960937h69.601562c4.144532 0 7.5-3.359376 7.5-7.5 0-4.144532-3.355468-7.5-7.5-7.5h-70.355468c-5.113282-30.492188-31.675782-53.804688-63.597656-53.804688-33.550782 0-61.398438 25.710938-64.253907 58.894531-.253906.757813-.394531 1.566407-.394531 2.410157v226.582031c0 4.140625 3.359375 7.5 7.5 7.5s7.5-3.359375 7.5-7.5v-224.6875c.125-.476563.203125-.972657.230469-1.480469 1.449219-26.199219 23.15625-46.71875 49.417969-46.71875 27.292968 0 49.5 22.207031 49.5 49.5 0 1.003906-.042969 2.082031-.132813 3.394531-.007813.171875-.015625.339844-.015625.511719v337.464844c-12.171875-14.527344-30.039062-22.980469-49.351562-22.980469-19.949219 0-37.808594 9.105469-49.648438 23.375v-83.613281c0-4.140625-3.359375-7.5-7.5-7.5s-7.5 3.359375-7.5 7.5v122.210937c0 .546875.0625 1.078125.171875 1.589844-.003906.3125-.023437.625-.023437.9375 0 34.976563 28.082031 63.617187 62.882812 64.476563.457031.085937.929688.132812 1.410156.132812h340.714844c4.144531 0 7.5-3.359375 7.5-7.5v-87.230469c0-.527343-.054688-1.042969-.15625-1.539062zm-346.757812 81.269531c-.414063-.070312-.839844-.109375-1.273438-.113281-27.195312-.097657-49.320312-22.300781-49.320312-49.492188 0-27.296875 22.207031-49.5 49.5-49.5 17.191406 0 32.898437 8.726563 42.019531 23.34375 1.371093 2.195313 3.777343 3.53125 6.363281 3.53125h284.625v41.894531h-333.007812c-10.625 0-19.269532-8.644531-19.269532-19.269531s8.644532-19.269531 19.269532-19.269531 19.269531 8.644531 19.269531 19.269531c0 3.691407 2.671875 6.757813 6.1875 7.378907 1.058593.566406 2.265625.890624 3.546875.890624h204.847656c4.140625 0 7.5-3.359374 7.5-7.5 0-4.140624-3.359375-7.5-7.5-7.5h-200.25c-3.136719-15.683593-17.007812-27.539062-33.601562-27.539062-18.894532 0-34.269532 15.371094-34.269532 34.269531 0 18.894531 15.375 34.269531 34.269532 34.269531h333.007812v15.335938zm0 0"/><path d="m261.265625 86.96875h-103.449219c-4.140625 0-7.5 3.359375-7.5 7.5v136.90625c0 4.140625 3.359375 7.5 7.5 7.5h103.449219c4.144531 0 7.5-3.359375 7.5-7.5v-136.90625c0-4.140625-3.355469-7.5-7.5-7.5zm-7.5 136.90625h-88.449219v-121.90625h88.449219zm0 0"/><path d="m150.316406 382.648438c0 4.140624 3.359375 7.5 7.5 7.5h210.683594c4.140625 0 7.5-3.359376 7.5-7.5v-44.273438c0-4.144531-3.359375-7.5-7.5-7.5h-210.683594c-4.140625 0-7.5 3.355469-7.5 7.5zm15-36.773438h195.683594v29.273438h-195.683594zm0 0"/><path d="m150.316406 265.375c0 4.140625 3.359375 7.5 7.5 7.5h208.683594c4.140625 0 7.5-3.359375 7.5-7.5s-3.359375-7.5-7.5-7.5h-208.683594c-4.144531 0-7.5 3.355469-7.5 7.5zm0 0"/><path d="m157.816406 309.875h208.683594c4.140625 0 7.5-3.359375 7.5-7.5s-3.359375-7.5-7.5-7.5h-208.683594c-4.140625 0-7.5 3.359375-7.5 7.5s3.355469 7.5 7.5 7.5zm0 0"/><path d="m291.5 189.875h75c4.140625 0 7.5-3.359375 7.5-7.5 0-4.144531-3.359375-7.5-7.5-7.5h-75c-4.144531 0-7.5 3.355469-7.5 7.5 0 4.140625 3.355469 7.5 7.5 7.5zm0 0"/><path d="m291.5 226.875h75c4.140625 0 7.5-3.359375 7.5-7.5 0-4.144531-3.359375-7.5-7.5-7.5h-75c-4.144531 0-7.5 3.355469-7.5 7.5 0 4.140625 3.355469 7.5 7.5 7.5zm0 0"/><path d="m291.5 106.875h75c4.140625 0 7.5-3.359375 7.5-7.5 0-4.144531-3.359375-7.5-7.5-7.5h-75c-4.144531 0-7.5 3.355469-7.5 7.5 0 4.140625 3.355469 7.5 7.5 7.5zm0 0"/><path d="m291.5 143.875h75c4.140625 0 7.5-3.359375 7.5-7.5 0-4.144531-3.359375-7.5-7.5-7.5h-75c-4.144531 0-7.5 3.355469-7.5 7.5 0 4.140625 3.355469 7.5 7.5 7.5zm0 0"/></svg>