<?xml version="1.0" encoding="iso-8859-1"?>
<!-- Generator: Adobe Illustrator 19.0.0, SVG Export Plug-In . SVG Version: 6.00 Build 0)  -->
<svg version="1.1" id="Capa_1" xmlns="http://www.w3.org/2000/svg" xmlns:xlink="http://www.w3.org/1999/xlink" x="0px" y="0px"
	 viewBox="0 0 423.253 423.253" style="enable-background:new 0 0 423.253 423.253;" xml:space="preserve">
<g>
	<g>
		<path d="M232.107,296.96h-40.96c-3.772,0-6.827,3.058-6.827,6.827v61.44c0,3.768,3.055,6.827,6.827,6.827h40.96
			c3.772,0,6.827-3.058,6.827-6.827v-61.44C238.933,300.018,235.878,296.96,232.107,296.96z M225.28,358.4h-27.307v-47.787h27.307
			V358.4z"/>
	</g>
</g>
<g id="SVGCleanerId_0">
	<g>
		<path d="M266.24,358.4H157.013c-3.772,0-6.827,3.058-6.827,6.827v20.48c0,3.768,3.055,6.827,6.827,6.827H266.24
			c3.772,0,6.827-3.058,6.827-6.827v-20.48C273.067,361.458,270.012,358.4,266.24,358.4z M259.413,378.88H163.84v-6.827h95.573
			V378.88z"/>
	</g>
</g>
<g>
	<g>
		<path d="M266.24,358.4H157.013c-3.772,0-6.827,3.058-6.827,6.827v20.48c0,3.768,3.055,6.827,6.827,6.827H266.24
			c3.772,0,6.827-3.058,6.827-6.827v-20.48C273.067,361.458,270.012,358.4,266.24,358.4z M259.413,378.88H163.84v-6.827h95.573
			V378.88z"/>
	</g>
</g>
<g>
	<g>
		<path d="M395.974,30.72H27.279C12.24,30.72,0,42.957,0,57.999v225.335c0,15.043,12.24,27.279,27.279,27.279h368.695
			c15.039,0,27.279-12.237,27.279-27.279V57.999C423.253,42.957,411.013,30.72,395.974,30.72z M409.6,283.334
			c0,7.513-6.113,13.626-13.626,13.626H27.279c-7.513,0-13.626-6.113-13.626-13.626V57.999c0-7.513,6.113-13.626,13.626-13.626
			h368.695c7.513,0,13.626,6.113,13.626,13.626V283.334z"/>
	</g>
</g>
<g>
	<g>
		<path d="M395.947,51.2H27.307c-3.772,0-6.827,3.058-6.827,6.827v225.28c0,3.768,3.055,6.827,6.827,6.827h368.64
			c3.772,0,6.827-3.058,6.827-6.827V58.027C402.773,54.258,399.718,51.2,395.947,51.2z M389.12,276.48H34.133V64.853H389.12V276.48z
			"/>
	</g>
</g>
<g>
	<g>
		<rect x="47.787" y="215.04" width="136.533" height="13.653"/>
	</g>
</g>
<g>
	<g>
		<rect x="197.973" y="215.04" width="177.493" height="13.653"/>
	</g>
</g>
<g>
	<g>
		<rect x="47.787" y="187.733" width="327.68" height="13.653"/>
	</g>
</g>
<g>
	<g>
		<rect x="47.787" y="242.347" width="197.973" height="13.653"/>
	</g>
</g>
<g>
	<g>
		<path d="M99.707,100.714c-0.113-0.802-0.379-1.495-0.799-2.086c-0.42-0.587-1.048-1.058-1.874-1.41
			c-0.833-0.352-1.959-0.526-3.393-0.526c-1.294,0-2.307,0.174-3.055,0.526c-0.747,0.352-1.307,0.823-1.679,1.41
			c-0.382,0.591-0.628,1.283-0.741,2.086c-0.113,0.802-0.167,1.652-0.167,2.55v34.959h-1.014l-13.387-36.304
			c-0.375-0.983-0.867-1.853-1.481-2.611c-0.56-0.645-1.28-1.242-2.167-1.789c-0.887-0.55-2.034-0.823-3.434-0.823h-5.56
			c-1.574,0-2.785,0.273-3.639,0.823c-0.86,0.55-1.481,1.277-1.881,2.191c-0.386,0.911-0.628,1.952-0.693,3.116
			c-0.065,1.164-0.106,2.348-0.106,3.557v42.704c0,0.901,0.061,1.751,0.174,2.55c0.106,0.802,0.372,1.495,0.799,2.086
			c0.42,0.587,1.055,1.058,1.894,1.41s1.993,0.526,3.454,0.526c1.294,0,2.307-0.174,3.055-0.526c0.747-0.348,1.307-0.823,1.686-1.41
			c0.382-0.59,0.621-1.287,0.741-2.086c0.106-0.802,0.16-1.652,0.16-2.55v-34.956h1.014l12.721,34.451
			c0.198,0.56,0.464,1.249,0.819,2.062c0.352,0.816,0.819,1.594,1.413,2.338c0.59,0.747,1.324,1.379,2.205,1.898
			c0.888,0.519,1.987,0.778,3.308,0.778h5.56c1.546,0,2.748-0.273,3.601-0.823c0.86-0.55,1.481-1.277,1.853-2.191
			c0.386-0.911,0.608-1.946,0.679-3.096c0.065-1.154,0.106-2.345,0.106-3.581v-42.704C99.881,102.362,99.82,101.516,99.707,100.714z
			"/>
	</g>
</g>
<g>
	<g>
		<path d="M144.951,125.781c-0.116-1.164-0.369-2.318-0.761-3.454c-0.396-1.137-0.98-2.236-1.768-3.304
			c-0.788-1.068-1.853-2.01-3.202-2.823c-1.348-0.816-3.028-1.475-5.041-1.98c-2-0.505-4.427-0.758-7.26-0.758
			c-0.846,0-1.847,0.041-3.014,0.126c-1.167,0.082-2.393,0.297-3.686,0.631c-1.294,0.334-2.567,0.85-3.826,1.536
			c-1.266,0.686-2.4,1.649-3.413,2.884c-1.014,1.236-1.833,2.778-2.468,4.632c-0.625,1.853-0.945,4.113-0.945,6.779v9.854
			c0,2.895,0.481,5.335,1.434,7.328c0.952,1.993,2.239,3.608,3.854,4.844c1.615,1.239,3.475,2.137,5.581,2.697
			c2.106,0.563,4.318,0.857,6.653,0.884c1.775,0,3.673-0.154,5.707-0.464c2.041-0.311,3.918-0.829,5.666-1.56
			c1.741-0.727,3.188-1.703,4.335-2.925c1.154-1.222,1.734-2.744,1.734-4.57c0-0.87-0.16-1.577-0.468-2.127
			c-0.304-0.546-0.72-0.973-1.219-1.283c-0.509-0.307-1.089-0.519-1.754-0.631c-0.655-0.109-1.335-0.167-2.041-0.167
			c-1.454,0-2.601,0.133-3.427,0.399c-0.833,0.27-1.478,0.597-1.939,0.99c-0.461,0.393-0.833,0.816-1.113,1.263
			c-0.28,0.451-0.597,0.87-0.945,1.263c-0.362,0.393-0.833,0.724-1.44,0.99c-0.601,0.266-1.468,0.399-2.587,0.399
			c-0.986,0-1.816-0.198-2.482-0.591c-0.683-0.393-1.222-0.898-1.628-1.516s-0.693-1.29-0.867-2.021
			c-0.16-0.73-0.253-1.43-0.253-2.106v-4.045h16.766c1.488,0,2.642-0.191,3.454-0.587c0.812-0.396,1.406-0.864,1.792-1.413
			c0.372-0.546,0.591-1.123,0.652-1.727c0.051-0.604,0.078-1.13,0.078-1.58h0.01v-2.601
			C145.118,128.034,145.063,126.949,144.951,125.781z M122.361,130.638h-0.003v-2.949c0-0.478,0.048-1.024,0.133-1.642
			c0.082-0.618,0.294-1.201,0.628-1.748c0.341-0.55,0.843-1.004,1.495-1.369c0.666-0.365,1.574-0.55,2.72-0.55
			c1.376,0,2.444,0.184,3.181,0.55s1.287,0.898,1.645,1.601c0.348,0.703,0.563,1.567,0.628,2.591
			c0.065,1.024,0.106,2.195,0.106,3.516H122.361z"/>
	</g>
</g>
<g>
	<g>
		<path d="M206.135,117.531c-0.198-0.758-0.519-1.43-0.973-2.021c-0.447-0.587-1.027-1.065-1.72-1.43
			c-0.707-0.365-1.56-0.546-2.574-0.546c-0.987,0-1.826,0.174-2.526,0.526c-0.7,0.352-1.307,0.816-1.806,1.389
			c-0.509,0.577-0.939,1.232-1.294,1.959c-0.348,0.734-0.635,1.492-0.86,2.277l-4.714,16.51h-0.679l-4.461-11.875
			c-0.819-2.219-1.751-3.755-2.799-4.611c-1.055-0.857-2.256-1.283-3.608-1.283c-1.348,0-2.604,0.427-3.768,1.283
			c-1.164,0.857-2.099,2.393-2.799,4.611l-3.874,11.875h-0.672l-5.308-16.51c-0.253-0.785-0.567-1.546-0.925-2.277
			c-0.369-0.73-0.802-1.382-1.307-1.959c-0.505-0.577-1.072-1.038-1.707-1.389c-0.628-0.352-1.341-0.526-2.126-0.526
			c-1.126,0-2.058,0.167-2.819,0.505c-0.761,0.338-1.372,0.795-1.833,1.369c-0.461,0.577-0.799,1.242-1.007,2
			c-0.215,0.758-0.321,1.543-0.321,2.359c0,0.754,0.106,1.522,0.321,2.294c0.205,0.771,0.44,1.495,0.693,2.167l9.434,24.849
			c0.621,1.659,1.208,2.929,1.768,3.813c0.56,0.884,1.12,1.529,1.666,1.935c0.546,0.41,1.092,0.645,1.638,0.717
			c0.546,0.072,1.133,0.106,1.748,0.106c0.56,0,1.092-0.034,1.601-0.106c0.509-0.072,1.007-0.307,1.495-0.717
			c0.492-0.406,1-1.048,1.519-1.935c0.519-0.888,1.085-2.157,1.707-3.813l4.547-15.162h0.672l4.379,15.162
			c0.621,1.659,1.208,2.929,1.775,3.813c0.56,0.884,1.113,1.529,1.659,1.935c0.546,0.41,1.099,0.645,1.645,0.717
			c0.546,0.072,1.126,0.106,1.748,0.106c0.56,0,1.096-0.034,1.601-0.106c0.505-0.072,1.014-0.307,1.512-0.717
			c0.505-0.406,1.017-1.048,1.539-1.935c0.522-0.888,1.102-2.157,1.748-3.813l9.346-24.849c0.253-0.73,0.485-1.454,0.693-2.167
			c0.215-0.717,0.321-1.454,0.321-2.212C206.428,119.064,206.329,118.289,206.135,117.531z"/>
	</g>
</g>
<g>
	<g>
		<path d="M241.534,138.537c-0.748-1.362-1.707-2.56-2.895-3.601c-1.171-1.038-2.478-1.942-3.912-2.714
			c-1.434-0.775-2.833-1.495-4.205-2.171c-0.908-0.42-1.768-0.84-2.594-1.263c-0.836-0.42-1.56-0.846-2.195-1.283
			c-0.628-0.437-1.13-0.891-1.495-1.369c-0.358-0.478-0.546-0.997-0.546-1.56c0-0.618,0.106-1.123,0.328-1.505
			c0.205-0.393,0.488-0.71,0.84-0.949c0.348-0.239,0.748-0.406,1.174-0.505c0.44-0.096,0.891-0.147,1.372-0.147
			c1.147,0,2.126,0.283,2.925,0.843c0.799,0.56,1.225,1.376,1.287,2.441c0,0.393,0.106,0.799,0.314,1.222
			c0.208,0.423,0.515,0.799,0.908,1.137c0.393,0.338,0.86,0.618,1.406,0.843s1.161,0.338,1.84,0.338
			c0.778-0.027,1.539-0.106,2.266-0.232c0.734-0.126,1.386-0.348,1.959-0.672c0.573-0.324,1.038-0.758,1.386-1.307
			c0.358-0.546,0.532-1.242,0.532-2.086c0-0.502-0.041-1.12-0.106-1.85c-0.065-0.73-0.253-1.495-0.546-2.297
			c-0.294-0.802-0.747-1.594-1.348-2.379c-0.608-0.785-1.437-1.495-2.488-2.126s-2.372-1.147-3.959-1.539
			c-1.587-0.389-3.512-0.587-5.792-0.587h-0.666c-2.533,0.055-4.786,0.28-6.758,0.672c-1.987,0.396-3.669,1.048-5.042,1.959
			c-1.372,0.911-2.42,2.106-3.133,3.581c-0.72,1.475-1.079,3.304-1.079,5.495c0,1.492,0.328,2.816,0.973,3.98
			c0.645,1.164,1.485,2.212,2.526,3.137s2.195,1.768,3.475,2.526c1.28,0.758,2.546,1.471,3.813,2.147
			c1.014,0.56,2,1.113,2.973,1.662c0.959,0.55,1.826,1.12,2.587,1.707c0.761,0.591,1.365,1.232,1.826,1.918
			c0.468,0.689,0.7,1.427,0.7,2.212c0,0.925-0.348,1.676-1.034,2.253c-0.686,0.577-1.58,0.864-2.673,0.864
			c-0.533,0-1.079-0.034-1.645-0.106c-0.56-0.072-1.065-0.212-1.533-0.423c-0.468-0.212-0.84-0.485-1.133-0.823
			c-0.3-0.338-0.461-0.785-0.488-1.348c-0.061-1.683-0.539-2.905-1.434-3.663c-0.901-0.758-2.055-1.137-3.454-1.137
			c-1.935,0-3.376,0.393-4.321,1.178c-0.932,0.789-1.406,2.021-1.406,3.707c0,0.7,0.085,1.464,0.246,2.294
			c0.174,0.826,0.468,1.662,0.894,2.505c0.413,0.84,1,1.649,1.748,2.42c0.741,0.771,1.686,1.458,2.84,2.062
			c1.147,0.604,2.526,1.089,4.127,1.454c1.597,0.362,3.478,0.546,5.646,0.546c1.092,0,2.253-0.079,3.492-0.232
			c1.232-0.154,2.451-0.413,3.639-0.778c1.201-0.365,2.335-0.857,3.413-1.475s2.028-1.399,2.84-2.338s1.464-2.058,1.959-3.348
			c0.495-1.29,0.741-2.779,0.741-4.465C242.647,141.507,242.275,139.899,241.534,138.537z"/>
	</g>
</g>
<g>
</g>
<g>
</g>
<g>
</g>
<g>
</g>
<g>
</g>
<g>
</g>
<g>
</g>
<g>
</g>
<g>
</g>
<g>
</g>
<g>
</g>
<g>
</g>
<g>
</g>
<g>
</g>
<g>
</g>
</svg>
